<svg xmlns="http://www.w3.org/2000/svg" viewBox="0 0 769.19 984.02">
  <g>
    <path d="M319.67,76.85V70.58l.37-6.26.76-6.26,3-12.05,2.26-5.78,2.44-5.78,3-5.54,2.25-3.37,2.44-3.14,2.64-3.13,2.82-2.65,3-2.65,3.19-2.4,3.19-2.17,3.38-1.93L358,5.55l3.75-1.45,7.52-2.41,4-.72,4.13-.48L381.3,0h4.14l4.13.24,3.95.48,4,.73,3.94,1,3.76,1.21,3.76,1.44,3.57,1.69,3.58,1.92,3.19,2.18,3.19,2.4,3,2.41,3,2.89,2.64,2.89L436,27.71l2.06,3.37,2.07,5.3,1.7,5,1.3,5.31.95,5.54.19,5.3-.19,7-.57,3.85L442.38,74l9.21,1.45,13.53,2.89,4.51,1.21,8.84,2.65L483,83.82l4.32,1.46,8.45,3.61,4.33,1.93,8.27,4.33,4.52,3.14,1.49,3.37,1.32,4.58.75,4.57.19,5.54-.38,4.58-.94,4.58-1.51,4.57-1.5,3.13-23.86,8.92,9.2,4.33,9,4.58,8.83,4.81,8.64,5.07,8.46,5.29L541,172l8.09,5.77,7.9,6,7.88,6.27,14.67,13.48,7.32,7,6.76,7.24,6.59,7.46,6.57,7.71,7.52,7.95,3.39-1,1.69-3.12.37-3.86,3-2.89H629l1.5,2.89-.75,1.92-3.19,6.27,1.88,4.09,2.25,1.21,2.45.48,2.43-2.17,1.88-2.41,1.69-2.64,1.14-2.89,7.13.23L650.24,219l1.13-2.17-1.32-2.41-3.57-3.61-1.32-3.37.94-3.37,4.7-.24.57-1.46-3-3.13-1.51-3.85.38-2.89,4.14-1,1.12-.25-.93-2.89-.19-3.12.55-3.14.57-2.16,5.45-1.21,2.63,4.57,1.32,3.38,1.5,1.92,4.69-1.92,2.83-.24,1.31,3.37.19,3.37-.38,3.37.94,3.86,2.82.24,3.39.48-.76,4.34-1.87,4.57-2.83,3.38.75,2.4,1.51.49,3.75.24,3.77.48,3.76.73,3.57,1.2-3-2.65L684.44,212l-1.13-3.86.37-3.85,6.2-.48L685.57,197l.37-4.57,1.51-.73,2.63-2.17-1.7-5,1.13-3.85,3.19,1h1.88l1.7-4.33,2.06-3.14,3.94,5.54,8.1-1.2.56,3.13-.38,4.33,3.57,3.61L714,193l-3,4.09.75,2.41,3.95,1.21,1.87,3.62-.75,4.33-2.25,3.86.18,4.33,4.7-1,5.45.25,5.26,1.21,5.07,2.4,4.52,3.13-.56,64.32-3.58-1-3.57-.72-3.57-.48-4.7-.48-4.69,1-1.69,2.17-.57,4.09.94,3.86,2.44,2.65,3.77,1.45,3.37.24,4.14-1,2.25-1.21,14.48,1L747,303l-1.69,2.42-2.81,2.64-3.76,2.41-7.33,3.38-6.58,2.4,1.13,10.6v5.3l-.19,5.55-.56,5.29-1,5.3-1.12,5.06-2.07,6.51-2.45,5.29-3.18,4.58-4.33,3.86-4.32,2.88L700,377.72l-3.2.23h-6l-3.2-.23-3-.25-3-.48-15-2.16L663,377.72l-3.75,3.36-3.39,3.38-3.19,3.61L647,395.78l-2.44,4.09-2.26,4.34-.93,30.35,4.31,4.1,4.13,4.09,3.77,4.58,3.57,4.57,3.19,4.58,3,5.06,2.82,5.06,2.44,5.3,2.07,5.3,1.88,5.54,1.5,5.54,1.32,5.54.94,5.78.37,5.54.37,5.78-.18,6v4.82l-.19,5.06-.37,5.06-.57,4.82,10.53-1,5.07-.72,4,.24,4.32,1,4.14,1.21,4.31,1.45,3.95,1.68,5.27,2.65,6.19,2.17,4-1.93,4.32-1.69,4.52-1,4.5-.24,4.51.72,4.33,1.2,4.32,1.7,2.82,1.92,3.38,2.41,3.19,2.65,3.2,2.89,2.63,3.12-23.67,31.08-2.63,35.42-25.38,41.66-3.56,2.9-3.57,2.65-4,2.17-4.15,2.16L698,677.14l-4.13,1.67L689.51,680,685,681l-4.51.48-4.51.24h-4.51l-4.33-.48-4.31-.73-4.32-1-4.14-1.44-4.32-1.7,2.63,8.2,2.44,8.43,1.88,8.19,1.88,8.43,1.31,8.43,1.14,8.43.74,8.67.38,8.44v8.43l-.19,8.67-.37,8.43-.95,8.68-1.12,8.42-3.38,16.86-2.26,8.2-31.95-24.09-5.63,12.52-3.2,6-3.39,6-3.75,5.77-3.57,5.79-4,5.54-8.45,10.84L586,845l-4.69,5.06-4.7,4.81-4.89,4.82-10.52,9.16-5.27,4.33-10.33,8.43-8.46,6.26-8.65,5.79-8.83,5.54-9.21,5.3-9.21,4.81-9.39,4.58-9.59,4.1-9.77,3.61-7.71,3.61L461,927.17l-3.76,2.16-7.14,4.35-3.57,2.4-3.39,2.41-6.57,5.07-6.39,5.53-6,5.54-5.83,6.26L396.71,984l-8.63-8.92-4.14-4.57-4.7-4.33-9-8.44-9.59-8.43L353.68,944,346.54,939l-7.33-4.82-7.51-4.58-11.28-4.09-11.28-4.34-10.9-4.82-10.9-5.06-10.7-5.3-10.53-5.78-10.34-6-10.15-6.5-9.39-7.23-9.4-7.47-9-7.94-8.83-8-4.7-4.09-39.46-54.44L134,823.35l-3.19-8.43L128.16,806l-2.44-8.66-1.88-8.92-1.49-8.91-1.14-8.92-.56-9.15-.19-8.91.57-13.74.37-4.33.56-4.58.57-4.33,1.5-8.92,2.07-8.91,2.44-8.91,2.82-8.68,1.5-4.32,1.69-4.34-5.45,1.44-5.44,1-5.64.49-5.64.24h-5.63l-5.46-.49-5.64-.71-5.44-1.22-4.14-1.43-4.14-1.69L78,677.14,74.24,675l-3.77-2.4-3.38-2.65L63.71,667l-3-3.13-2.63-2.65-2.63-2.89L53,655.45l-4.14-6.26-2.07-3.37-1.69-3.37-1.5-3.38-1.88-5.78-1.32-5.54L39.84,622l-.38-6-1.13-6-1.5-5.77L35,598.61l-2.62-7L29.69,587l-3.56-4.34-3.95-3.61-3.58-2.17L10,572.11,0,567.29l.37-2.89,2.26-3.14,2.63-2.64,4-2.9,3.38-1.92,3.58-1.45,3.56-.72,3.95-.48h6.57l3.2.24,3.2.48,6,1.45,3.2.72,3,1.2,5.08,1.45,5.63-.24,4.7-.73,3-1,2.44-1.2,5.07-1.69,4.89-.72,6.2-.24h3.76l3.2.48,3.19.72,3,1,3,1.21v-7.47l-.19-7.46-.57-7.47-1.13-11.56-.37-7.71.18-4.1.19-3.85.38-3.86.37-4.09.76-3.85,1.5-5.31,1.88-5.05,2.07-5.06,2.63-4.82,2.82-4.58,3.38-4.33,3.57-4.1,3.75-3.85,4.34-4.1,4.7-4.09-.38-9.4V425.41l-.19-3.14-.38-3.12-.56-2.9-.94-3.13-.76-2.88L128,407.1l-1.31-2.89-1.32-2.65-1.51-2.65-1.69-2.4-3.75-4.83-2.07-2.41-2.06-1.93-2.45-2.16-38.91,1.68H68.78l-4.13-1.2-3.77-1.93-3-2.89-2.63-3.6-2.07-3.62-1.5-4.09-.76-3.14-.74-3.85-1.13-29.15H36.27l2.44-48.18-4.7-13-6-4.81-5.64-1.69-1.87-2.89.94-3.13.18-6-.18-5.53.18-5.55.37-6.49.76-4.58,1.87-4.82L26.68,224l2.45-1.43.37-3.86.19-4.58,1.32-4.1,2.63-3.13L36.09,205l3-.72,4.13,2.16,1.51,3.61-.19,2.42,7,3.36,3-1.2,3-.72,3.2-.24h3.2l3.19.48,3.38.73,3.2,1H77.8l1.13-3.36.75-6.27,11.84-1,1.69-25.77,1.87-2.42,3-2.64,4-.73,3.38,1,4.32,2.89,6.2,27.71,1.51,4.58.56,4.57-.38,2.65,1.88,4.57,1.69,4.58,3.2,5.31,4,2.64,3.38,3.37,2.06,4.34.57,3.61v3.62l-.38,3.85,10.9,2.17v-3.37l.57-4.82-.76-3.61-1.12-5.79,2.44-.71,4.32.71,6.39,11.32,6-8.42,6.19-8.19,6.59-8,6.95-7.46,7.14-7.47,7.32-7.22,7.72-7,7.89-6.51,8.08-6.26,8.27-6.26,8.64-5.78,17.66-10.6,9.21-4.81,9.4-4.59,9.58-4.33-6.2-2.9L271,140l-5.84-3.38-5.82-3.85-6-4.58-1.87-5.06-.94-5.53.18-5.54,1.69-5.55,3-4.81,3-2.89,2.44-1.93,2.44-1.69,2.64-1.69,5.26-2.88,5.64-2.41,3-.73,15.42-4.33,15.41-3.85Zm50.93-9.64-.19-6,.37-3.13,1-3.38,1.87-4.1,3.2-3.37,3.95-2.41,4.51-.95,4.5.24,3.57,1.43,3,2.42,2.45,2.88,1.12,2.66.94,3.37.56,3.38v3.61L401,67.21ZM114.82,578.85l1.51,3.85,1.13,4.1.74,4.1.57,4.09v4.34l-.18,4.32L118,608l-.94,5.06-1.51,4.82-2.44,5.3-2.44,3.12L108.25,629l-2.82,1.92-3.2,1.45-3.75-.73-3.76-2.17L91.33,627l-3-3.12-2.45-3.62-1.68-3.86-1-4.09-.38-4.1.76-4.33.94-3.13,1.31-2.89L87.57,595l1.89-2.65,2.06-2.65L94,587.52l3.58-2.89,4.13-2.65,4.51-1.69,4.89-1.2ZM140.94,265l1.88,4.57,2.64,7.72-2.82,3.37-1.88,4.09-.57,4.09.19,3.14.75,3.61,1.32,3.62,1.69,3.12,2.07,2.89,2.44,2.65,3,2.41,3,1.93,3.38,1.45-2.24,9.87-3,1.45-4.7,1.92-4.88,1.93-4.88,1.69L133.43,332l-5.82,3.84-5.83,3.62-4.51,2.42-4.7,2.16-4.7,1.93L103,347.36l-3,.49-4.5.23-4.14-.23-3.2-1.93L87,344l-1.32-3.86-.94-3.85-.55-5.78-.2-6v-6l1.5-6,2.26,2.65,1.32,2.9,2.44,2.16,3.2,1,4.13-.72,4.33-2.17.93-2.65.38-5.06v-5.3l-1.88-13.73,3.38.73.19,3.37,1.69,3.14,2.63,2.16,3.2,1.44.93,17.11,1.88,3.13,3,3.61,3.75,3.37,3,.24,3.19-1.68,3-3.13V278.47Zm484.67,43.83,8.84,3.38,3,.48h3.38l2.26-.48,3.95,2.17,2.81,2.41,2.26,2.41,3.76,1,3,.24,3.19.24,4.14-.72,5.08-2.64,5.44-1.94,5.26-1.68h4.14l3,.24,3,1,3,.72L698,317l-.19,4.57-.37,4.58-.76,4.82-1.88,5.78-2.25,1.44h-4.14l-6-2.41-5.07-1.92L673,332.43l-4.13-1.7-4-2.16-3.56-2.41-9.59-4.09-4.33-1.2-5.82-.73-5.26-1.45-3.76-1.92L629,314.6l-2.44-3.13Zm24.63-65,.56,24.33L635.57,271v-2.65l.57-5.29,1.31-6.76,1.32-4.33,2.25-3.85,2.82-2.9,3.77-1.44ZM197.7,622l2.44,72.27-33.07-30.11Zm387.7-29.39,3.38,9.64,1.88,4.57,4.14,9.15,4.88,8.67L602.5,629l2.82,4.09,3,4.1,3.19,3.85,3.19,4.1,3.39,3.61,3.57,3.61,3.76,3.62,4,3.37-4.52,5.3-4.89,5.3-5.07,4.81-5.26,4.82-5.64,4.1L598.18,688l-5.83,3.62L586,695Zm93.4-27.94,4.13.72,3.58,2.17,4,3.86,2.62,3.36,2.45,4.58,2.06,4.57,1.51,4.83,1.12,5,.75,6v4.82l-.55,4.57-1.14,4.58-1.69,3.61-2.44,3.13-3.2,1.93-3.57.48L685,622,681.43,620l-3.94-3.85L675,612.82l-2.63-4.59-2.07-4.58-1.5-4.8-1.32-6.27-.56-4.82v-4.82l.56-4.57,1.13-4.58,1.69-3.61,2.44-3.13,3.2-1.93ZM615.84,457l2.45-2.17,5.63-3.37,3-1.45,6.39-1.92,3.2-.48,5.26-1,3.57,1.21,1.88,1.93,1.87,2.89,1.13,3.85.38,5.06-.76,4.1,10.15.48,1.33,1.92.56,2.41.37,5.78-.19,3.38,3.76,7-3.19.48-3,2.41-1.51,3.62-1.68,3.61-2.07,2.17-3,1.2-4.14-.72-2.45-1.68-4.13-.25-.38,3.13.94,1.45,3.2,2.16L640.65,508l-4.51,1.2-4.32-.72-2.26-2.89-.75-2.65-.94-3.85-2.63,1.44-3.38,1-3.38.24-3.2-.72-3.57.48,1.69,4.34,1.31,2.17,2.63,1,4.89.73,6,.72,1.68,2.65-.74,3.13-1.7,3.37-10.15-2.16-2.06,1,3.2,1.93,3.19,3.13.56,3.13L620.17,529l-3,1-4.14-.48-4.32-1.93-.93,3.14,1.3,1.67,2.08,1.45,3.19,1,3.76,1.67L619,541l-.93,4.58-2.63,1.2-3.57-1-4.13-.47-.39,2.9-2.63,2.4-3-1.45V483.94l2.45,1.21,6.2,1.68,5.82,1.69,2.26,2.41,2.62,1.93,3.57,1,3.58-.48,3.2-1.46,3.19-2.88,1.5-3.61-1.88-1.93-4.13,2.89-4.7,1.2-3-1.68-.19-2.41,2.26-1.45,3.2-.48,4.88-1.44,5.08-2.89.56-4.82-2.45.24-3,1.44-3.2.25-3-1-2.82-2.89-6,7.7-12.79-2.4.2-4.33,1.31-4.1,2.06-3.86,2.64-2.88,1.87-1.69ZM162,460.58l3.39,2.4,3.19,2.66,2.83,2.88,2.43,3.38,1.5,2.65.94,2.89.57,2.89v4.58l1.69,3.13-.56,2.17-2.64,2.89-.18,3.13,2.82,1.68,3,1.45.19,4.34-.56,4.09-1.69,3.13-2.07,2.17,7.33,9.87.38,3.38-.19,3.37-.57,3.37-.94,3.37-4.51,7.72-1.69-1.94.19-2.88,1.69-3.62,1.32-5.3-2.44-1.2L175,531.64l-4,2.65-2.82-1v-2.89l5.27-6.74,1.5-4.58h-3l-3.57,1.21-4.13,2.89-3-1.21-3.2-1.92-4.32.72L151.66,523l-3.2,2.66-3.19.72-4-1.21L137.57,523l-3.95-1.67L131,522.48l.19,2.65,1.51,3.61,2.44,1.45,4.51,4.1-3,1-5.07.73-6,1.92.76,2.65,2.07,2.41,2.81,2.41,3.39,1.92,4.5,3.62,3.58,1.44,4.13-.48,3-.48,4.32,1,4.13,1.69,3,.72,3.95-1,6.95-3.37,3.58-1.21,3.94,1.21,1.5,2.89,1.13,4.34-.95,8.67-1.12,8.42-1.5,8.44-1.88,8.43-.94,3.13-.94,2.88-3.38,8.68-2.07,4.1-2.06,4.33-2.26,4.09-2.45,3.86-2.63,3.86-2.82,3.85-2.63,3.13-3,2.65-4.52,2.17-2.81,1-4.51-1.92.19-2.18.18-4.33-2.07-1.21-1.68,1.7-2.82,4.81-2.82.72-2.26-4.09.37-2.65,1.13-4.09-1.13-3.38-.18-3.61.75-4.58,1.69-4.33,1.32-3.86.19-3.86-.57-3.84-.94-4.1-.19-4.58,7.52-1.44,7.52-.25h22.55l2.63-3.12-1.12-2.18-5.46-.47L162,579.81l.94-1.68,2.45-4.1-4.7.48-3.39-.72-3.19-1.92-4.7.24-2.81,1.68-3.58.72-3.76-.72-4.51-1-2.25,1.45.94,1.93,3.75,4.1L135.31,582l-3-1L130,578.85,128.73,576l-.94-3.85-.37-2.9-2.07-3.61-1.69-3.37-1.51-3.85L121,554.76l-2.45-10.12-2.07-10.35-.94-4.34-.56-4.09-.56-4.34-.38-8.67v-8.43l.56-5.3,1.51-4.34,1.69-3.85,3.38-3.14,5.08,1.21,5.45,2.41,4.13,3.37,2.07,3.62,1.31,3.12,2.26,4.1,2.82.24.94-2.41.19-4.33,5.63-1.44,1.51,1.92-.57,1.68-2.63,3.14,1.13,2.17,2.82,1,2.44,1.68,1.7,2.9,3.19,1.68h4.51l4.7-1.68,2.25-2.17,2.26-3.13.18-3.38-3.38.49-1.88,3.85-3,1.68-3.19-.24-3.76-3.13-.56-2.89,1.69-4.33-1.31-3.62,1.69-2.16,3.75-2.42,4.52-3.13-.95-4.57-2.81,1.21-3.2,1-2.82-1.93-.56-2.65-2.07-2.18-2.25.5-2.82,1.68-3.2,1.68-3.57.73-3.38-1.69V477.2L138.32,476l-2.07.24-2.63,9.88-4.14-2.65L127,480.57l-1.51-2.65-1.31-3.13,5.08-6.51,1.12-3.13,2.83-3.13,4.87-3.61,3.77-1.93,3-.47,2.25.23,3.77.72,3.75,1,3.76,1.2Zm5.07-2.9-5.44-1.44-4.13-1.69-3.77-2.16L150,449.74l-1.51-1.93V440.1l.19-7v-6.75l-.19-7.22-1.32-3.61L146,412.16l-3-7-3.19-6.74-3.57-6.5-4.51-7.23-2.83-3.38-2.44-3.13,1.14-4.09,3-1,13,15.89,4.5.72,4.52.24,4.5-.24,4.52-1,4.69-2.17,3.95-3.13,3.2-3.85,2.07-4.58-1.89-1.44L171.58,376l-3.76,1.69-4.89.72-5.07-.25,2.07-6,8.64-2.64L162.93,363l.94-9.15-8.26,4.1-9-5.54L147,363l-6.2,7,9.77,2.17L149,378.92l-5.26-1.2-5.07-3.14-2.07-2.41-1.12-13.26-5.08,4.35-.56,2.17-.19,3.13L71.6,373.62l-3-3.62-1.89-2.89L65.4,364l-1.12-3.61-1.14-5.3-.75-5.3v-5.55l.19-5.29,5.07-32.28.75-4.58.38-3.61,1.88-3.61,2.82-.49,3.57-1.2,2.82-1.45,2.44-1.92,3.38-3.13,3.38-4.34,3-2.89.57,2.65-.57,3.13-.94,3.13L89.07,291l-4.32,2.88-1.88,2.42L81,300.87l-.94,3.86-1.31,6.49-1.32,7.72-.37,5.54.37,3.85.76,8.2,1.87,8.66,1.14,4.33,2.06,5.31,3.38,5.06,4.14.48.94-1.21,6.58-3.37,6.57-2.65,13.54-4.82,4.13-1.68,3.94-1.93,9.78-5.06,10-4.58,4.51-1.2,3.38-1,5.45-2.17,5.45-3.37,1.69-1.93,18.05-.24,2.81,3.13,2.45,1.93,3.94,2.17,4.14,1.93,4.51,1.43,9,1.45,5.82.73,3.2.72,4.13,1.2,4.14,1.94,3.95,1.92,2.25,1.92,3,3.38,2.25,3.85-12.78,3.37-2.45-2.89-2.24.48-5.27,6.27-8.08-3.38-.75,5.06-3,.24L203,359.16l-3,.24-.94,1.69-.94,2.89-.57,2.89-3.75,2.66-5.64,2.88h-3.2l-1.69,5.78-.94,6.27L181.16,390l-.94,13.25L180,417.7l.75,3.85,1.69,3.38,3,3.37,3.94,1.68h4.14l4.32-1.44.56,23.12-3-.72-3-2.89-.57-2.89.76-4.82L191.12,437,187,440.1l-4.89-1.2-4.51-.48-1.32,2.4.75,3.38-.75,2.16-2.81,3.38-1.32,4.33,7.33,1.45,5.45,7.94,6.2-8.19,3-.24,3.57,1.21,1.13,1.2-1.7,3.86-3.19,3.36L190,466.84l-4.71,1.92-4.13.25-2.63-1.93ZM336.77,67.93l-.38-5.06.19-5.29.19-3.14.37-3.37.57-3.13.94-3.37.93-3.14,1.32-2.88,3-5.79,1.88-2.65,2.07-2.65,2.25-2.4,2.26-2.17L355,20.48l2.63-1.93,2.82-1.68,3-1.93,9-2.89,5.45-1.2,5.81-.73h5.83l4.13.48,3.21.72,3,1,3,1.21,5.63,2.89,2.64,1.69L413.82,20l1.69,2.17h-9l-8.27.95-4,1-4.13.72-7.89,2.41-3.2,1.45-3,1.69L373.23,32l-2.63,2.17-2.45,2.41-2.25,2.65-2.07,2.66-1.5,3.12L361,47.7l-.94,2.65-1.13,4.33L358,59l-.38,4.59v4.33Zm91.89,0h-17.1l-.37-4.57.19-6-.19-5.78-.75-5.31-1.51-4.32-2.63-3.86-3.95-2.9-2.82-2.41,4.33-1h3.95l4.13.72,4.51,1.69,4.33,2.64,3.38,3.62,2.62,4.33,1.88,5.07,1.13,5.53v5.79Zm52.62,29.14-9.58,1-9.4,1.2-9.58,1.68-9.4,1.69-9.39,2.16L424.72,107l-9.21,2.64-9.21,2.9-10.89,3.85L390.14,119l-5.08,2.65-12,1.21-6,1-6,.72-46.79,9.16H308l-3-.49-3.2-.48-3.19-.72-3.2-1-3-1.21-6-2.89-5.64-3.38-3.57-2.4-3-3.61-.95-2.9.95-4.09,2.25-4.82,2.26-3.85,10.9-4.09,10.9-3.62,10.89-3.14,11.09-2.88,11.28-2.41L345,83.83l11.27-1.68,11.47-1.21,7.32-.48,7.15-.24h7.32l7.15.24,14.28,1,7.33.73,14.28,1.92L446.52,87l7.14,1.69,6.95,1.69,6.95,1.92,7,2.41ZM414,120.21l10-2.89,10.15-2.66,20.67-3.85,10.33-1.44,10.34-1,10.53-.48,11.83.48,3,2.65,1.13,4.09-.94,4.1-.94,2.41-5.27,2.17-5.44,1.93-5.64,1.44-5.45,1-5.64.72-5.82.25-5.64-.25-20.49-1.68-5.64-.24-5.63-1-5.65-1.44-4.12-1.45-2.82-1.2ZM340.9,141.64,337.71,146l-4.14,3.37L329.25,152l-2.44,1.69-3.76,1.93-4.14,1.44-4.12,1.21-4.33,1.2-.19,3.62L308.58,166,306,167.66l-3.95,1-4.32-.48-5.07-1.68-5.46-.48-5.44.72-4.89,1.68-4.13,2.17-2.83,1.93-3.38,2.89-3.2,3.37-.55,5.3-6-.24-2.63,1.69L253,186.93l-1.31,2.65-.95,2.89-3.94,10.84-1.51,1.93-1.12,3.85-.37,4.82-.76,3.86-2.25,2.88-.76,3.13v3.14l.57,2.16,4.89,8.43-3.95-3.37-5.08-2.64-3.38-.72-1.88-1.94-1.31-2.16L227,220.41l-4-1.68-.75,2.64.19,2.89,1.87,3.14,3,4.58,2.63,5.77-1.69,2.66-1.5.48,2.44,3.62,2.26,4.32-1.13,4.58-3,7L224,267.15l-3.38,7-3.76,6.5-3-2.16-3.38-1.94-3.57-1.92-3.57-2.41.75-3.85,2.06-5.54,1.32-2.65,1.32-3.14.75-4.57,1.87-2.88,3.21-1.94,1.68-2.89-.56-2.89-2.06-1.2h-3.39l-2.44,2.4-2.45,2.66-3.57,1.68-3.75,1.2-4,.49-1.69-2.17-1.14-3.61-.37-4.34.19-3.85-2.63-1.45-2.81-.72,3.56-4.58,7.52-8.67,4-4.34,3.95-4.09,4.13-3.86,4.32-4.09,4.14-3.61,4.5-3.86,4.33-3.61,4.51-3.38,4.69-3.6,9.4-6.51,9.77-6,10-5.54,10.34-5.06,10.52-4.58,5.27-2.17,5.45-2.16,10.9-3.61,11.27-3.14,11.28-2.64Zm-82.5,47-.75,6.51,2.44,1.21,3.19-1.69,3.4.24-1.89,3.37-4.14,3.14-4.32-1-2.07-2.17-.94-2.16,1.7-4.35Zm7-.71V184l3.19-1.44,3.39,1,.18,1.94v4.82l1.88,1.2L278,191l.37,3.38-3,2.16L271,197l-1.51-2.64.56-3.85-2.06-2.9Zm3-11.08,2.64-1.94,3.75-1.68,4.51,1,1.7,2.89-.76,3.38L278,184.76l-3.39,1-1.13-2.17-2.25-3.6ZM282.45,172l3.58-2.66,5.82.24,3.57,1.45.76,2.89-2.63,1.93-2.26.24-5.07-.24L283,173.2Zm7,8.67-.94,3.62-4.32,3.12-2.07-2.4,2.07-3.38,2.63-1Zm12-8.67h4.89l3.58,1.2,3.19,2.41L314.4,178l.57,3.13-3.19,1-4.14-.48-3-1.44-2.82-3.14ZM318,162.6l3.38-1.2,2.64,1.44,2.82,3.14.37,4.08-1.88,1.22-2.63-2.42-1.32-3.13-1.49-1.92Zm-.56,10.84,1.32,13.25m13.34-17.11,3.19,2.42.76,3.12v5.55l-.57,5.05-1.31,4.1-1.88,1.44.37-6-.19-3.38-1.31-4.1v-3.36Zm-6.39,10.12,3.39,4.34-2.83,5.3-1.49-3.85.18-3.86Zm13.53-3.37,3,3.62-1.5,2.88-1.69-.48-1.32-4.82Zm.19,12.77-2.07,4.33.38-3.61Zm-90.95,27-.57-4.57,1.5-4.82L252.2,205l4.89.72.18,1.93-4.69,8.67Zm-.2,4.58,2.26,2.66.18,5.3,3.76,5-2.25.72-3.2-.72L245.81,231l-1.88-2.66L243,224l1.13-1.43Zm7.33-.48,2.63-5,2.83-4.83,2.06-4.09,3.19-.72.19,1.44-2.63,3.61-2.06,3.38-2.07,3.62-1.51,5.06L256.52,224Zm-21.79,14.69,5.62,3.14-1.87,2.65-3.2-1.93Zm10,7,5.07,1.45,1.12,3.13Zm8.26-2.41,4.7,1-3.57,2.16Zm9.59-11.08,3.38-7,3.19-7,1.51-3.37,1.88-3.13,2.25-3.14,3.2-3.61,3.75-2.64,4.14-2.17,4.51-1.69,4.51-.72,5.45-1.45,4.7-1,6-.25,5.45.25,4.51,1.68,3,3.14,2.07,4.09.94,4.58.37,4.82-.19,4.33-.75,4.09-1.5,4.1-1.88,3.86-2.63,3.61-2.82,2.89-4,.72,2.08-3.38,2.43-2.88,2.82-4.57-2.25-1.45-1.51,1.2L314,226l-3.76,3.37-4.13.24-4.14-.95-1.88,2.17,2.45,2.4-2.26,2.41-3,1-4.32.25-2.82,1.2-1.88,2.89,1.13,3.13,2.26,1,2.63-.25,9.39-4.33-2.06,2.89L299,245.22l-6.2,2.65h-4l-2.81-1.2-1.13-2.89.56-3.37,2.82-3.14,4.33-2.16.18-3.13-2.63-.73-2.07.73-2.06,2.4-3.76,2.89-2.44,1-3.39.24-3.2-.73-3.38-1.92-2.06-2.65-3.58-1.2-.18,2.4,2.25,4.34,3.39,3.13,3.95,1.68,3.38,2.41-2.45,1.45-3.38-1-3-1.92-2.81-2.66L263.1,239l-.94-3.85-.19-3.38Zm7.7,23.13.19,4.1-2.26,3.12-3.38,2.65-3.57,2.9-3.57,3.13-3,3.85-2.26,4.33-2.26,3.14-3.57,1.92-3.94,1.21-3.76.48L234,281.6l-1.88-2.17v-5.54l.76-2.89,2.25-4.1,3-4.34,1.69-1.92,3.38-1.21,4.13-.47,3.38.24,4.51-.72,2.83-2.89,3.19-2.66,3.76-1.44ZM282.08,250l.37,3.62-2.06,2.64-3.95,1.93-2.07-1.93,1.32-1.92,3.76-2.65Zm-7.89,10.12.56,4.57-1.88,4.1-3.19-2.17.75-2.88,1.69-2.9Zm17.66-8.92,1.88,2.42L286.22,258Zm45.29-35.17,3,2.17-7.89,2.9L330,219.45Zm.19-3.6,3.57-1.94,8.84,1.7-.94,3.12Zm7.52,7,4.89,3.14-4.7,2.16-3.38-2.89Zm-37.21-.72,5.26-2.66-.57,2.9-2.62,2.4-2.64-1.44Zm29.51-56.13,4.88-4.33,5.07-4.1,5.45-3.86,5.46-3.37,5.82-3.12,6-2.66,6.19-2.4,6.21-1.94,7.52-.47,7.14-.24h14.85l7.13.47,7.33.48,7.33,1,7.34,1.21,6.19,1.2,6,1.44,6.2,1.45,6,1.92,6,2.18,5.83,2.17,6,2.4,4.89,2.9-35.34,11.31-4.32,1.69-3.95,1.44L433,176.09l-11.28,6.74-10.9,7.23-10.9,7.71-4,3.13L392,204.28l-3.57,3.61-3.76,3.61-22,1.44-1.12-3.36-2.26-2.9L355.37,204l-4.51-1.94-5.27-1.2-3.93-.48,1.69-3.86,1.32-4.09.92-4.1.76-5.54L346,178.5l-.94-4.09-1.88-3.86-1.88-2.89-2.07-2.41ZM414,202.82l-.76,9.41-3.94-.49-6.39-1,2.45-2.64,3-2.65Zm6.58,10.61v-3.38l.37-3.61.56-3.62L423,198.5l2.26-4.1,4.13-3.14,4.13-2.89,3.39-2.16,3.38-1.69,5.07-2.17,4.14-.72L448,188.37l-1.88,6.51-2.06,6.75-2.64,8-1.69,5.29-2.06,1.45-4.89.24-5.27-.49-4.13-1.2ZM445.76,219,455,193.92l1.51-4.34L457.8,185l1.13-4.58,2.25-5.31,4.89-2.16,3.94-1.44,9-2.41,9.2-2.17,9.39-1.69,10.9-1.21,4.89,1.21,4.32,1.93,4.14,2.4,2.81,2.18,4.14,3.85-41,61.9-5.07-2.89L477.72,232l-5.08-2.42-5.27-2.4-5.44-2.41-5.26-2.16-5.45-1.94Zm91-39.75,4.71,2.89,9,6.26,5.07,4.34,3.19,3.62-50.18,55.88-4.13-2.64-4.13-2.9-7.52-6.26Zm29.13,22.88,4.7,3.62,4.71,4.1L583.9,218l2.25,2.89,1.51,3.86-1.89,3.37-1.31,3.38v3.36l.76,4.58-1.7,3.61-2.07,1-3.38-.72-3.38-1.69-3.2-2.89-1.5-2.64-2.82-.73-3.2,1-1.68,3.86.93,2.4,3,2.17,3.57,3.61,2.26,2.65,2.25,2.9,2.44,4.09,1.51,3.37-5.83,7-6.95,7.7-1.7,1.46-6.95,3.85-2.63,1.44-2.81,1.44-2.83,1.21-3.76,1.45-3.19.72-6.38-7.47-6.4-7.7L522.44,265l-6.39-7.23-.75-2.41,1.5-.48,2.63-1.69,2.45-1.93,6-5.77,5.82-6,5.46-6,5.63-6.26Zm3,81.18,2.82,4.34,1.69,3.38.94,3.85.38,3.61.18,2.89-9.2,3.85-10.15,4.1-2.07-2.65-3-5.3-1.7-2.65-1.88-2.4,3.58-2.66,3.75-2.41,4.14-2.17,4.13-2.65ZM385.06,225l4.71-.73,4.69-.24h4.89l4.7.24,3.19.73,3.38,1-.56,23.37-2.63,14-2.26,13.24-2.06,13-1.88,13.25-6.58-.48-4.13.24-5.83.48-9-54.68L375.1,244l-.38-5.06Zm34.59,2.17,7.13.72,5.08,1.2,3.57,1.94-7.7,23.6-13.91,49.87-4.51-1Zm23.67,5.54,7,2.41,7,2.89,6.77,2.89,6.57,3.13,3.39,2.17,3.76,2.64,1.5,1.94-44.91,63.35-3.2-1.45-9.77-3.85,2.25-9.64,2.45-9.64,2.62-9.39,2.64-9.64,2.82-9.63,6-18.78Zm-73.67,12.52,2.26,14.46-.37,4.1.37,3.12,1.13,8.43,1.31,8.44L376,292.2l1.89,8.43.94,3.13-6.58,1L355.56,264l1.7-3.38Zm-16.9,28L356.69,284l3.38,8,3.57,8,3.39,7.94-7.33,4.58-6.58,4.34-17.1-14,1.31-5.3,1.88-4.33,2.07-4.34,2.25-4.09,4.14-6.26,2.44-2.66Zm-16.92,37.09,4.69,3.38,2.83,4.09-2.83,2.17-3-2.17-3.38-3.61.57-3.62ZM330,324.48l3.76,1.2-.37,4.82-4.14-.49Zm156.74-71.31,11.08,9.15-52.43,57.82-3-2.16Zm18,13.73,12,12.29L528.45,292l2.08,2.89-68.6,40.22-2.26-2.89-2.44-2.65-2.63-2.64-2.07-2.9,5.64-5.05,4.51-4.82Zm29.33,35.65,3.19,3.62,3.75,5.54-.37,2.65L534.84,318l-5.26,2.64-14.28,6.75-14.47,6.26-14.66,6.26-15.79,6.27-1.69.48-2.25-5.78Zm51.3,3.62,4.32,7.71-1.5,2.89L586,318.94l-3.38,2.16-3,1.45L572.81,325l-7,1.68-5.07.25-1.69-2.9-.75-3.61-.76-2.89,3-1.45,2.82-1.44,6-2.41,4.88-1,2.25-1Zm-261,66.72,2.62-8.67,1.7-4.09,2.44-5.54,2.63-5.07,3.19-5,3.57-4.34,4.15-4.34,4.31-3.61,4.7-3.61,5.26-2.89,4-1.93,4.31-1.68,9-2.41,4.51-1,4.52-.71,4.69-.74,4.51-.23h4.89l6.39,1.68,6.39,2.18,6.2,2.64,6,2.89,3.39,1.69,6.39,4.09,3,2.41,2.82,2.41,2.63,2.89,2.44,2.66,2.26,2.87,2.07,3.14,1.88,3.13,1.69,3.38,1.5,3.37,1.31,3.37,1.14,3.62.74,3.61.57,3.85Zm147.89-20,57.89-25.29,15.6-4.82,3.56,3.85,1.14,3.86-3.2,2.65-4,2.64-3.95,3.14-2.63,2.41-2.25,2.88-3.38,3.14-5.26.49-5.08,1.43-4.51,2.18-3.19,3.85-1.7,3.13-2.82,2.17-3.94,1-1.88-.23-28.94,4.57v-6l-.56-4.1Zm38,18.55,1.88-4.58,2.07-4.58,1.68-1.92,3.57-2.41,4.32-1.69,4-.48h4.14l3.95.72,3.94,1.2,3.76,1.69,2.63,1.69,4.33,1,3.94,1.21,3,1.2,2.63,1.45,2.82,1.44,3.75,2.41,3.2,1.69-3.95-.24Zm150.9-146.7,2.63-3.38,5.08-1.68,5.64-.48,5.83.48,4.31,1.2,4,1.7,5.27,3.12.56,1.21-1.13,35.4-3-1.68-3-1.21-2.26.25-2.82,1.92.38,4.34,1.88,2.65-23.87,1.69Zm5.27,3.61,5.63-1.2,9.59,1.92h4.51l3.57,1.45.76,3.85-.19,2.42-1.7,4.33-4,.24-3.38-2.17.75-2.65,2.63-1.93-3.19-1.68-4.13-.72-2.64.48-4.32-1-4.88-1.92Zm.37,6.5,5.45.25,1.32,3.13-2.25,1.68-2.83-.48-2.06-1.93Zm.94,7.95,3.76-.48h4.7l3,.24,3.75,1.45,3.76,3.37-1.69,2.9-2.82-.25-3.57-1.21-4.13-.48-4.71.48-4.31-1.2-.19-2.64Zm-1.88,14.7,1.88-4.1,3-1.2,4.13-.24,4.7,1.44,2.07,3.13Zm12.4,1.69L676,265l-4-1-1.87.47-3.76,1.69-.94-2.16,1.88-3.38,2.25-1Zm25.57-29.64,3.75-1.44,6.77-1.44h7.14l3.38.48,3.39.72L732,230h-6.2l-6.76-.23h-6.78l-3.37.48Zm.37,16.15,3.76-1.44,3.39-.74,3.56-.72h7l3.38.49,3.39.72,3.75,2.17h-6.2l-6.76-.25H716l-3.38.25-3.2.24Zm.19-8,3.76-1.2,3.38-1,3.38-.48,3.57-.25,3.38.25,3.58.48,3.38.72,3.76,2.17h-6.4l-6.57-.48h-3.39l-3.38.24-3.38.48Zm.18,16.87,3.76-1.44,3.39-.73,3.56-.48,3.39-.24H722l3.58.48,3.56,1,3.58,1.92h-6.21l-6.76-.24h-3.38l-3.39.24-3.19.24Zm0,10.6,3.58-1.2,3.57-1,3.38-.5,3.38-.24,3.57.24,3.39.5,3.38.72,4,2.16h-6.39l-6.77-.24H713l-3.38.48Zm-113.69-20,4.32,4.1,4.88,4.82,10.53-12.53,4.32,11.08,8.84-6.75,4,7.72,5.07-1-.94,2.41-1.51,6.74-.93,6.75-4-2.17L621.29,265l-4.13-1.2-4.32-.72-4.51-.25H604l-4.32.72-4.32,1L591,265.7l-3.75,1.45-1.88-4.09-1.89-4.83-1.12-3.61,2.83-1.69,2.24-2.41Zm.56,9.88,3.57,2.65-1.32,3.13-3.37.48-2.45-2.4,1.32-2.9Zm15.41-1.44,3.58,2.64-1.33,2.9-3.38.72-2.44-2.65,1.32-2.89Zm14.85,1.2,3.76,2.65-1.31,3.13-3.58.48-2.44-2.41,1.32-3.12Zm15.78,25.29,7.33,6h4.52L666,281.36l3.57-.73h3.57l3.39.73,3.76,1.68-2.27,6.5-25.18-1.44-11.45.48-8.84-8.91ZM632,290l12.21,4.09-11.46.48Zm1.13,10.36h10.52l10.52-5.06,18.79-.24L672.6,298l-21.8,5.54-18,.48Zm54.68-13,6.76,3.62-.56,4.81-10.9.25v-3.38ZM696.28,305,695,308.33l-3.76-.72-4.13-.72-4.14.24-4.13.48-3,1L673.16,310l-3.2,2.41-12.78,1.21.57-3.38,4-1.93,3.95-1.68L670,305.2l5.27-1.44,4.89-.73,4.88-.24,4.88.49ZM612.65,452.87l-7.14,6-3.39,2.41-3.94,1.2-4.7.24-4.13-.48-2.45-1.68L585,457.21l-.37-4.34.18-4.1,2.83-2.89,3,.24,1.31,1.21,4.52,7.46,5.44-8.19,7.53-2.65L608,441.06l-3.2-4.33-.18-3.86-.76-4.33h-2.62L597.62,430H589l.19,3.62-1.5,3.62-2.26,1.2,1.5-17.11,2.64-1.2,6-3.86,2.81-1.93,2.83-2.64.37-3.86v-6.5l-.19-6.75-.56-6.74-.38-6.75-.75-3.85.75-4.34,2.45-2.41.75-3.13-.19-3.85-3-2.16-1.5,1.43-1.51,3.86-1.5,1-3.38-.24-5.45-2.4-5.45-3.61-3.94-2.9-1.89,2.41-1.68,1.44-2.07-2.4-.94-4.1-2.26-4.57-2.07-3.14-.56,8.67L555.52,350l.19,2.4,1.5,2.17-9.77-2.9-4.52-4.33,1.32-3.37,2.63-3.13,3.39-2.17,2.82-1,3.75-1.2,3.76-.74,3.95-.23,4.32-.25,3.39-.24,3-.71,2.81-1,4.13-1.93,4.88-3.37,4.33-4.1,2.83-3.37,2.43-3.61,22.36-.24,1.7,1.92,4.88,3.38,6.4,3.13,2.81.48L647,329.53l6,1.93,7,2.17,3.76,1,3.2,1.2,7.33,3.14,7.33,3.62,7.14,3.61,7.89,3.36,1.13-1.92,1.13-3.13.75-3.13,1.5-7.95,1.12-8.19,1-7.95.76-8.19-1.51-8.67L701,294.6l-.93-2.89-1.51-3.61-2.06-2.89-3.2-2.64-3.57-2.18.57-11.8,1.87,3.14,2.07,1,4.89,3.61,5.07,4.81,1.13,3.62.56,2.89.57,6,.37,6.26.19,6,.18,7.22,3.21,3.13,1.68-1.92L716.19,298l2.64,32,.37,7-.18,4.1-.57,5.3-1.12,5.29-1.14,3.38-1.5,3.13L713,361.34l-3,3.37L653.62,364l-.19-2.89-.57-3.13-.75-2.89L651,351.22l-1.5-2.66-2.07-2.64-2.63-1.45,1.13,20.71-2.07,2.17L639.52,370l-4.13,1.69-3,.48.94-7,10.9-1.92L637.45,356V345.42l-9,5.55-8.27-4.33L620,356l-5.81,6.5,8.64,2.64,2.06,6-5.44-.73L616,369l-2.24-3.13-1.7-3.14-3.38-1.2-1.88,1.2,1.51,4.1,2.82,4.1,3.38,3.61,4.32,2.65,4.51,1.93,4.89,1,4.69.48,4.89-.48,15-5.06-3.19,2.66-3.57,4.33L644,385.66l-2.82,6-2.44,6L636.89,404l-1.5,6.5-.38,7v7l.38,7-.19,8.67L633.51,443l-3,1.93-4.51,1-4.32,1.69-4.33,2.17ZM591.23,330l4.13-3.12,3.76.24,12.4,5.05,9.77-6,7.52.48v4.82h-9.58l-5.64,6-5.45-.48L598,329.53Zm148.46-29.14-6.21,5.54-4.32,1.68-3.75,1-.57-6.27,10.53.49ZM586.9,278.22l3-3.61,2.82-2.16,2.82-1.45,4.13-1.21,5.64-.71H611l5.46.47,5.45,1.45,4.51,2.41.93,4.34v3.85l-.37,3.85-.76,3.85-1.31,5.79-1.69,6.5-3,4.34-3.95,3.13-4,1.93-4.32.72-4.32-.49-4-1.67-3.19-2.42-2.63-3.37-1.7-3.37-1.31-3.62-1.69-2.89-.94-2.88-.56-3.14-.38-3.13-.19-3.13Zm9.59-3.36,5.63,2.65,3.57,2.64-1.49,4.34-5.46.48-5.08-4.1.38-3.36Zm22.54,0,3.39,4.57-.56,3.61-11.09-.24.56-4.09,1.88-1.69,2.07-1Zm-27.62,17.58,6.21,1.44,3.57.48,3.56.24h4.71l4.7-.48,4.13-.72,2.62.48-1.12,3.85-1.5,2.42L615.84,303,613,305.2l-3,1.21-3,.24-3.2-.24-4.88-1.92-3.2-3.14L594,298.94l-1.31-3.37Zm21.43,7.47-4.7,1-6.95-1.2-.38-1.94,4.7.25h3.19l4.32-.25Zm-8.09-10.37-.18,2.9L603.25,290Zm5.46,0-.2,2.9L608.7,290ZM664.7,492.62,666,498.4l.75,3.12-2.63,2.42-3.95,2.4-3.75-.24,3-2.4,2.07-2.42Zm5.07,9.87,1.14,4.1v3.85l-1.14,5.06-1.69,3.61-5.26-7.47,2.07-1.2,1.7-1.69Zm-27.24,16.86-.19,4.34-1.88,2.65-3.2,1.2-4.88-1.44-.94-2.41,1.13-3.13,1.88-2.9,2.07-2.64,3.19-3.13,2.07-1,2.63.25,4.13.47,3.39.25,2.81,1.2,3,2.16,1.51,3.14L658.12,522l-4.87,1.93-4-.48-3.95-2.16Zm-16,11.33,4.69,1.2,3.2,2.41,2.81,3.61,1.14,4.58-1.14,1.93-3.75,1.2-2.64-.24-3.38-1.93-3-2.65-2.63-4.34.75-2.4Zm19.35-2.9,6.39,4.82L647,536l-3.38-.49L641,533.56l.19-2.16Zm19.17-2.89,4.14,2.65-1.32,2.89-3.39,1.21-3-.72-1.88-1.45Zm-9,11.81,9.59,3.13.56,2.17-1.13,2.89L663.21,549l-2.08,7-1.5,5.55-1.31,5.78-1.14,5.78-4.88-5.78-6.39,6-3.94-1-4.32-3.14-3.58-1.2-.56,3.14-1.5,4.1-3,1.67-3-.72-3.57-1.45L618.85,576l-.38,1.93,3.39,3.13,3.19,2.65,3.76,3.13,4.89,3.37,3.56,1.69,3.2.24,3.2-1.93,3.19-1.44,3.38-1.21,3.57-1,2.83,9.15,1.31,8.44L655.5,607l-3.2,1.21-1.13-8-2.25.72L647,602.94l-2.07,1h-4.88l-3.57.25L635,606.79l-.94,3.86-4.32-.48-1.88,1.68v2.65l3.38.48,5.08-.24,1.5,2.65L636,619.32l-3.19,2.17,6.58,1.45L642,621l3.38-.48,3,.48,2.81-.48,2.26-2.4,2.82-1,3.19.49,4.89,1.92,2.81,2.65,1.7,3.13,3.57,6.75L666,630.16h-3l-.75,2.41.38,4.33L661,640.51l-1.69,1.69-6.4,2.17,2.07,2.17,4.88.72,5.46.24,2.81-.24,4.7-1.2,1.51-2.66.37-2.16,3.2-3.37,2.82-1.45,4.7-1.44,5.45-.49,4.13.72,3,1.94,2.25,2.65.94,3.37,1.32,3.61,1.32,1.92.37,3.14L703.8,655l-.76,2.17-2.62,1.45L697.59,660l-3,1.21-2.81,1-3,1-3.19.72-6,1-3.19.23h-3l-6.39-.47-3-.48-6-1.46-3-1.2L650.42,660l-8.64-4.34L637.83,653l-5.07-3.85-4.7-4.33-3.2-3.38-3-3.38-6-7.22L613,627.27l-2.62-3.61-5.08-7.72L600.81,608l-3.95-8.19-3.76-8.67-1.69-8.2,5.45,1.69h3.95l2.44-.73,3,7.72,3.38,7.71,3.76,7.46,4.13,7.47,2.07,3.62,2.45,3.36,4.88,7,5.26,6.75,6.95,6.74,2.64-.48-24.44-34L615.28,601l-2.44-6.26-1.13-3.13-1.13-3.38-1.12-3.12-1.32-4.34-2.45-7.23-.94-5.06-.55-5.06.18-3.85,6.39-6.74,24.43-.73,3-2.17,8.64,4.82,4.13,1,3.39-.48,2.63-1.68,2.63-3.37,1.88-3.86-4.13-2.65-3,3.37-2.82,1.45-3.94-1.45-1.32-2.88,2.63-2.17,3.76-1.45,2.82-2.65ZM682.56,642l2.63,4.34L683.31,653l-.38,3.38-4.7,4.57-4.13-.48,3-8.92.94-3.12,2.27-1.21Zm10.52,2.41,1.88,6.27-5.26,4.81-1.51-2.65.19-2.16.57-5.78Zm-10.15-89.85.75-3.61,1.51.48,3.95,2.17,3.75,2.4,4,3.62,3.95,3.85,3.57,4.1,5.07,3.37.38-2.89-.57-3.13L708.3,563l-1.5-2.9-1.88-2.4-2.07-2.42-2.25-2.4-3.39-5.79,2.45.48,3,3.14,2.82,3.37,2.63,3.37,2.63,4.58,1.31,3.61,1.13,4.34,3.2,4.33,1.5-1.45.37-3.12-.75-3.13-1.12-3.38-1.32-3.13-1.69-3.14-2.82-3.84-1.13-4.1,2.26-.24,4.13,6.26,3.57,7L723,582.22l3.95-4.57-.56-4.34-.2-4.33.57-4.34L728,559.1,732,555l-1.31,15.66,1.88-3.61,2.63-5.79,2.25-3.6,4.14-3.62,1.5,1.2-10.33,17.83,2.25,1.44,2.25-.72,3-4.34,2.64-3.85,2.81-3.84,3.57-4.84,3.39-2.64.93,3.62-16.72,25.77-.56,5.78-.94,5.06-2.44,3.12-3.77-1.43-4.69-.73-4.7.49-2.07,3.37.94,3.13,1.5,1.69,9,.72v-4.1l3.39,4.1-.38,9.39-7.51-5.3-2.83,2.16.76,2.9,2.25,3.62,2.25,1.92,1.7,2.89v4.82l-1.32,4.82L725,636.43l-2.83,3.85L719,643.89l-3.2,1.45-1.69-2.42-3.75-3.12-4-2.41-2.83-1.69-3-1.21-3.39-1.2,2.83-1.44,4.5-1.69,4.14.24,2.07,2.89,1.69.24V629.2l-1.51-3.86-1.5-1.93,3-3.85.56-6.74v-7l-.19-3.37-.57-3.37-.37-3.62-.55-3.13-.94-3.37-1.14-3.37-1.5-3.38-1.51-2.89-1.87-3.13-1.88-2.89-2.26-2.65L697.78,568l-3.57-3.61L690.64,561l-3.95-3.36ZM585.4,476.23l3.76,6.75.38,2.89.37,10.12v4.81l.38,6,.56,3.37.18,6.5v7.46l.94,2.9.19,5.29.57,5.79,1.51,3.13.74,3.86.38,2.89.37,3.13.19,2.89,1.13,4.34.94,4.09.37,3.61-.37,3.37-.94,3.14L594.24,575l-3.77.25-3.94-1.46Zm54.69,102.38,3.75,2.65-.18,2.88-2.07,1.94h-3l-2.06-2.18.19-2.88,2.06-1.93Zm11.84-.48,2.25,3.61-2.63,1.45-2.25-1.93ZM644,610.41l3,1.2-3.76.24-2.26-1Zm15.23-.72v3.61l-1.69-2.41Zm-10.53,3.61-1.12,2.41M187.17,250l3,7,2.63,2.18,2.07-.49,4.89-2.65,1.5.73L200,260.4l-1.32,5.3-1.51,6L196,273.89l-4.51-1.44-6.21-1.7-3.75-.72-6.39-.48-5.07.24-4.89.72-5.08,1.21-4.69,1.69-3.95,1.68-.75-3.12-.57-3.38-1.88-7.47L147.14,259l5.64,1.2,4.32-7.71,9.21,7,4.7-11.08,8.65,9.4Zm-.74,9.16,3.57,3.36-.94,2.42-3.57.72-2.64-2.41.94-2.89Zm-13,0,3.56,3.36-.93,2.17-3.57,1-2.63-2.41.94-2.89Zm-14.28,1,3.75,3.37-1.12,2.41-3.39.72-2.63-2.17.94-3.13Zm41.71,80.21-14.84-.48-12.22,6-5.83.48-7.89-5.54-10.71-.25L149,337l11.28-1.93,13,3.86L187,333.87l3.94.24,4.71,1.92,4.32,2.42ZM48.67,288.58l11.46,6.51-4.69,24.09-3,1.2H49.05l-.57-5.78-.18-5.54L48.11,304v-5.3l.19-5.06Zm142.08-7v5.54l.55,5.06.2,5.06v3.61l-.75,4.33-1.13,3.13-1.88,2.89-2.45,2.66-3.19,1.92L178,317.24l-4.14.25-4.32-1-3-1.44-2.83-1.93-2.44-2.4-2.06-2.66-1.89-2.89-.93-8.43-.57-8.43.94-7.47,3-2.4,3.57-1.94,4.51-1.68,3.76-.72,4.69-.24,3.95.24,3.39,1,3,1.93,2.63,2.41Zm-3.95.24,3,4.34-.38,2.88-10.34,2.41-1.31-4.33,3.38-2.65Zm-22.74.24,5.83,2.16,2.44,2.66.19,3.13-11.09.73-.38-4.82,1.13-2.17Zm23.87,16.86L186.61,304l-1.87,3.85-3.2,3.62-4.7,1.44h-4.7l-4.14-1.2-3.56-1.92-2.26-2.9-1.5-4.58.94-2.88,3.95,2.16,5.07,1,5.08.24,4.88-.48,4.69-1.68Zm-20.11,8.67,4.32-2.16,3-.25h3.19l2.63.49-2.63,2.16-6.76.48Zm8.83-11.31.56,2.88-2.06-2.41Zm-5.07,0,.75,2.88-2.07-2.41ZM106.37,566.81,103,568.49l-6.39,3.86-3,2.16-2.82,2.41-5.26,5.3-3.2,3.62-2.81,4.33-2.45,4.34-1.69,4.58-1.12,4.81-.57,4.82v4.82l.57,4.82L75,622l5.07,9.64,3.2,5.06,1.13,2.88.19,4.1.75,4.33,2.82,3.61,1.5-1L90.77,647l4.13-.48,5.26.24,5.83-.24,4.13-.72-.56,5.54-.38,5.53-.19,5.54-.18,5.31-5.07-.73-5.26-1.2-5.08-1.68-4.7-1.94-4.7-2.4-4.32-2.9-4.32-3.12-4-3.38-3-2.89-2.81-3.13L63.33,641l-2.06-3.61-1.88-3.86-1.32-3.86-1-4.09.76-4.09,3.76-1,3.57-1.92L68,616.18l1.51-3.36-.76-3.13-1.69-.49-2.81,2.65L62,613.54l-5.63,2.88-.75-2.88-.38-3.13-.19-4.34.38-4.58,1.31-3.37,4.52-4.82L59,592.1l-3.76,1.69-3.94-.25-1.51-1.92-.75-2.17-3.2-5.31-1.69-2.88-1.88-2.65L40.22,576l-2.07-2.41-2.26-2.4L31,566.81l-3.19-2.65-1.31-4.34,3.57,1.44,3.38,2.42,4.32,3.85L41,570.9l3,3.61,3,3.38,3,3.61h1.69l-.57-3.13L41.35,562,43,561l1.88,1,3.76,4.82,2.26,4.58,3.38,3.86,1.5.47-1.31-12,2.25.48L57.88,568l.76,3.38.37,5.05.56,6.75,2.25,3.37,2.83-.72,1.12-1.7,3.2-14.2,2.26-5.06,4.13-5.55,1.5,1.45-.75,2.9L74,566.81,72,570.9,70.09,576,69,580.78l.19,3.36,2.25,1.7,2.26-4.1.57-2.65.94-3.61,1.3-2.89L78.74,569l2.45-3.38L84,562.23l4.14-3.85,3.19.24-.19,2.4-3.75,3.62-3.57,4.09-3,4.34-2.62,4.82-1.51,3.85-.37,4.58.18,3.13,2.63-4.33,3-4.1,3-3.85,3.94-4.58,3.2-3.14,2.44-1.92,3.77-2.41,6.19-2.17,1.88,1Zm92.46-96.11,1.31,117.54-6.95-2.4-7.33-2.9-1.31-3.61.19-3.61.75-2.65,1.68-2.66v-5.29l-.18-4.34-.19-4.57v-5.54l1.32-4.58.75-5.54.75-6,1.13-2.18-.19-6.73.19-8.19.75-2.41v-15.9l.19-7.71.37-8.91.57-2.89Zm-48.3,107.43L152.6,582l-3.38.72-.76-3.37ZM41.9,207.4l3,1.21v5.54l3.2,3.38-.57,3.36-3,1-3.19-1.69L40,217.29v-2.17Zm47.93-1.2,1.12,6,.38,7.7L89.46,224l-3,1-3.2-1.45-1.5-3.37,2.07-2.88,1.87-3.14,1.13-3.86ZM30.44,259.92l2.07-5.54.94-27.95L35.52,225,41,226.2l5.83,1,4.52-1.45,2.06-2.89,3.19-1.68,2.83-1.21,5.26-1,4.32.48,6.39,1.44,4,2.65L81.37,226l3.57,2.17,4.7,1.44,8.08-3.13-.37,27.71-1.88-2.65L94,234.62,90,232.22l-3.94-1.93-3.76-1.21-4.51-1-7.33-.48h-6l-6,.48-6,.72-3.76.72-3.57,1.22-3.2,1.92-2.62,2.41-2.64,3.61-.75,21ZM50,235.35l17.47.48,5.64-.72,4.32.24,3.2.48,1.88,1-6.39,1.68-6,2.17-3.75,1.68L62,240.89l-4.89-1.2-5.44-.49Zm4.32,10.59,6.76,1.93-.94,1.93-2.63,1H53l-5.46-2.42,1.89-1.68Zm25.94-.23,7.14,1.92-.94,1.94-3,1-4.51.25-5.45-2.18.94-1.68,2.82-1ZM47.54,259.92l3.39,1.68,3.57.48,5.07-.72,5.26-1.93,4.33-1.68,2.63,2.17,3.39,1h3.93l4-1L88.33,258,90,260.16l.57,3.37v3.37l-.75,3.38-.94,2.41-2.07,2.88-4.88,5.79-3.38,3.37-3.77,2.17-7.14,1.44-4.89-.72-4.5-1.68-4.14-2.42-2.81-2.41-2.83-2.89-2.81-4.57.75-3.37,3,4.33,2.25,3.14,3.57,3.36,4.51,2.66,3.57,1.2,3.76.24H71.6L75.73,284l1.7-.23,4.32-5.55,4.88-7.47.76-7.69L69,270.51H64.65L59,269.08l-4.7-1.93-3-2.17-2.45-2.41Zm8.27,12.53,4.32,2.16,4.15.72H68.6l3.94-.72,3.76-1.2,3.75-1.93-5.26,6.27-4.7,1.44-4.5.24-3.39-1.21L60,277Zm13-9.89,3.76,2.17-2.63,1.21-4.7.24L64.65,264Zm34.77-82.86,4.51,5.31,1.32,2.89.37,2.89-.19,3.13-1.69,4.58-2.64,4.57-3.37,2.65L100.73,204l1.13-4.34Zm5.26,27,4.13,1.21-11.65,14L100,219.21l2.26-2.65,3.38-4.82Zm3,11.56,3.57,1.21L104.67,231l-.56-1.94,2.07-2.4,2.81-4.09Zm11.27,16.38,4,1,2.44,1.92,1.69,2.9.38,3.12-1.13,2.9-2.06,2.65-2.83,1.44-3.38.25-3.2-1-2.44-1.93L114.82,245l-.37-3.14,1.12-2.89,2.08-2.41,3-1.44Zm-10.52,1.21-2.82,4.34.56,9.4,4,1.92,1.69,3.13-3.38.48-3.95-1-2.82-1.21V235.59Zm-8.46,21.44L103,262.08l3.77,1,4.88-1-2.45,1.45-4.51.73-4.7-1.2Zm10.71,5.79,4.52-2.66,4.32-2.65.37,3.13-1.68,2.41-3.21,1.93-3.75.24ZM130,256.3l3,4.34-.37,2.42-2.07,3.12-3.39,3.61-3.93,2.66-3.58,1.2-3.76,1h-3.76l-4.13-.48-.94-1.21,4.51-.72,3.57-.72,3.38-1.2,4.14-2.17,2.44-1.93,2.06-2.4,1.69-2.9ZM94.15,292h3.57l.19,18.54.38,4.34H94.53Zm14.66-7.72,3.19-.47.57,4.33,1.69,5.78-.75,1.45-2.26-1.45L109.93,290Zm9.77-2.16h6.77v7.71l.18,7.7.38,7.47.56,8.92,1,4.81-1.32,3.13-2.81-.95-1.89-4.1-.94-5.06-1.12-15.41Zm32.89-.24L150,296.77l-3-2.17-1.5-2.4-.57-3.38.94-3.61,3.19-2.64Zm48.67-1,5.26,3.37,4.14,2.42,5.45,2.88,6,.25h5.26l4.33-.49,5.64.24,4.13.25,4.14.72,4.13,1h17.85l6.39-5.06,1.32,1.21-7.71,7.47-4.51.48-13.15.49H225.13l-12.4-.49-3.38-1.21L205.6,292l-2.83-2.17-2.63-1.93L197,283.77l.56-1.45Zm-.94,15.19,4.33,2.88,7.51,3.85,4.52.49,4.32-.25,3.57-.24h4.32l6.77,1,3.19.73h14.1l5.44-3.62-5.44,6.51-4.52.47-18.78.24h-9.41l-10.9-.71-2.44-1-5.45-4.1-3.2-4.58Zm-2.81,13.24,6.57,7.47.38,3.37-.57,3.85-2.63,3.62-3.57-1-3.19-2.16-2.45-3.14L189.81,317l1.12-2.65Zm18,9.88,5.46,2.16,2.06,2.41.19,3.38-7.33,1Zm14.85-4.82,15.6,2.16-2.44,1.69-13.72-1.44Zm26.31,1.2,4.14-3.37,2.44-.24,3.38.48,3.57,1.69-6.38.24-2.64,1Zm-52.24,61.19,3.57-3.13,22.36-8.19,3.76-1.21,4.89-1.21,9.77-1.44,6.39-.48,4.88,1.2,4.51,2.17,3.95,2.89L271,371l2.24,3.61ZM199.2,376l.76,4.09v3.61l-.57,5.06-.37,2.65V398l.37,6.5h-3.94l-2.82-6-1.51,2.65-.19,2.4.37,3.86,2.08,5.06.75,3.61-2.83,3.14-2.43-.73-1.7-2.88-2.43-4.1-.57-3.38.57-3.37,1.12-1.93L190,388.32l1.12-3.86,2.07-3.86,3-3.13ZM158,527.3l-.75,8.19-4.13.24-6.58-2.17,1.13-2.16,4.14-2.41Zm-15.59,14.21,6.57,3.62h-3.94l-3.19-.49Zm13.16,1.93,6.2-3.85,3.76,1.2,3.75,1.69L165,544.64l-3,.25-2.81-.72ZM113.88,644.37l5.64-3.61,4.32.24,1.51,1.69,1.12,4.57,2.07,5.3,3.57,2.89,4.14,1.44,4.13.25,4.51.47.94,1.94-3.19,2.64-4.32,2.42-4.89,1.68-5.07.72h-5.07l-5.46-.72L112,664.61l-.75-1.21,7.33-6.74-2.25-5.3L115,649Zm20.86,4.33-.94-3.6,2.82-1.21,3.39-.24,3.94.72,3.39,1.93,1.68,2.89,6.59,2.17-7.9,2.65-2.63-1.93L143.39,649l-3.76-1.2Zm48.87-59,4.51-.24,3.57.48,3.38,2.17L196,594l-1.69,4.82-1.88,4.33-3.95,8.43-2.26,4.33L184,620l-5.45,9.16-2.63,3.61L173.83,635,171,637.87l-3.38,1.44-5.26,1.2-3.57,2.18-4,2.41-2.44-1,12.21-14.92,3-4.59,5.64-9.63,2.45-4.81,2.25-5.06,2.07-5.06,1.87-5.06Zm-36.47,109.6L153,713.75,159.18,728l6.39,14.46,6.76,14.21,2.63,5.54,3,5.54,2.45,4.81,2.43,4.57,2.83,4.34,3,4.58,6.39,8.19,3.57,4.1,3.76,3.61,8.83,8.43,9.21,8.19,9.58,7.71,10,7.47,10,7,10.34,6.74,10.52,6.5,10.91,6,5.26,1.21,5.44,1.21,5.46,1,5.26.73,5.45.48,5.45.24h5.45l5.45-.48,5.26-.48,5.44-.73,5.27-1,5.26-1.2,5.26-1.45,5.27-1.68,5.07-1.94,5.08-2.16,3.38-1.69,3.19-1.92,3-2.17,3-2.41L396.34,832l8.64-6.74,8.84-6.51L423,819h18.6l9.4-.49,9.39-.24,9.21-.73,9.41-.72,9.2-1,6.2-1,6.2-1.2,6-1.45,6-1.93,6-2.17,5.64-2.41,5.63-2.65L535.6,800l2.63-1.44,2.63-1.69,2.44-1.93,2.45-2.16,2.81-1.69,2.83-1.92,2.62-2.42,2.63-2.17,6.77-7.7L566.6,773l3-4.09,3-4.33,2.64-4.58,2.44-4.34,2.63-6.27.18-3.85-1.12-3.85L577.88,739l-4.14-1.68L570,735.9,566.42,734l-4.7-3.38-2.82-3.12,3.39-1.93,3.94-1.2,7.14-3.38,5.45-3.13,10.9-6.75,5.26-3.36,5.07-3.62,10.16-7.71,4.89-3.85-1.51,9.15-1.13,4.58-1.13,4.34-1.12,4.57-1.32,4.34-1.69,4.34-1.51,4.33-1.88,4.34-1.88,4.09L599.87,741l-4.51,8.19L593.1,753l-2.63,4.1L588,761l-5.26,6.75-5.27,6.5-5.44,6.5L566.42,787l-5.83,6.26-6.2,6-6,5.78-6.4,5.55-6.57,5.54-6.58,5.29-6.76,5.06-7.15,4.82L508,836.11l-14.66,8.68-7.53,4.1L478.28,852l-7.52,3.38-7.33,3.37-7.14,3.62-4.51,2.16L447.64,867l-4.13,2.65-4.7,3.37-1.87,1.68-6,4.34-5.63,4.1-5.46,4.57-9.77,10.12-4.51,5.31-4.14,5.77-6,9.64-2.08,3.85L391.45,926l-1.88,4.1-1.68,3.84-1.51,4.1-1.32,3.85-1.32,4.1-1.86-2.17-2.83-2.65-2.63-2.41-2.82-2.16-3-2.17-12-7.71L346,919.46l-12.78-7-13-6.51-5.07-1.2-4.89-1.45-5.07-1.69-4.7-1.44-4.89-1.92-4.69-1.94-4.7-2.16-4.71-2.41-4.5-2.17-4.52-2.65-8.64-5.3-4.32-3.13-4.13-2.89-4.14-3.13-3.75-3.38L243.93,867l-3.57-2.41L237,861.89l-3.38-2.41-3.2-2.88-3-2.66-3-3.13-3-2.89-6.76-8.43L208,831.3l-6.21-8.68-5.82-8.9-5.45-9.16-5.07-9.4-4.89-9.39-4.33-9.64-31.38,14.94-1.13-3.37-1.49-5.55-1-5.53-.75-5.79-.38-5.78.19-8.18.38-8.43,1.13-16.38,1.12-8.43,1.13-8.19,1.32-8.2Zm12-20.23,7.13,8.19,3.95,3.85,3.76,3.61,4.13,3.86,8.28,6.75,4.32,3.37,4.32,3.13,4.7,3.13,4.51,2.89,9.4,5.3,4.89,2.41,5.07,2.41,4.89,2.17L208,748.44l1.5,4.09,1.69,4.1,6.2,11.55,2.45,3.62,2.44,3.37,5.64,6.74,3,3.14,3.2,2.89,3.19,3.13,3.39,2.65,3.56,2.65,3.58,2.41,3.76,2.41,3.94,2.41,3.94,2.16,8.28,3.86,4.32,1.69,4.14,1.68,4.5,1.2,5.27,1.7,2.81,1,3.57,1,10.72,1.44,18.61,1,18.6.72h18.79l9.4-.24,9.21-.24,6.76,6-3.38,3.61-3.76,3.62-3.95,3.13-8.64,5.3-4.7,2.17-4.7,1.68-5.07,1.45-6.95,1.45-6.77,1-7.14,1-7,.24h-7l-6.95-.24-6.95-.72-7-1.2L281,844.54l-3.2-1-3.2-1.2-3.19-1.45-3-1.44-6-3.38-2.82-1.92-2.63-1.93L246,823.11l-10.52-9.39-10.35-9.4-10.33-9.64-3.57-3.61-3.57-3.85-6.77-7.71-3.19-4.09-3.19-3.86-3-4.1-5.64-8.67-2.44-4.34L181,749.87l-2.44-4.33L176.27,741l-2.06-4.81-1.88-4.58L168.19,721l-1.88-5.78-1.69-6-1.5-5.79-1.31-6-1.13-6-.94-6.27Zm474.7-.72,3.2,6.26,2.81,6.5,2.45,6.5,2.07,6.76,1.69,7,1.31,6.74,1,7,.56,7v11.79l-.19,5.79L648,761.2l-.57,5.78-1.5,11.81-28.18-16.86L616,765.78l-2.43,5.54-5.26,11.08-2.82,5.3-6,10.6-3.2,5.3-3.38,5-3.57,5.07L586,818.53l-7.52,9.63L574.31,833l-3.94,4.58-4.14,4.33L556.83,852l-4.89,4.59-5.07,4.09-5.07,3.85L533,870.33l-18,10.59-9.2,5.3-9.4,4.82-9.4,4.57-9.59,4.58-9.57,4.1-4.7,2.16-4.51,2.17-8.65,5.06-4.32,2.66-4.14,2.4-8.27,5.78-7.88,6.26-3.77,2.89-3.95,3.38L414,940.42,410.44,944l-3.57,3.36L403.48,951v-4.1l.38-4.33L405,938l1.32-4.34,1.51-4.32,1.87-4.35,2.26-4.09,2.26-3.86L417,913.2l3-3.61,3.19-3.62,3.2-3.37,6.76-6.75,3.77-2.88,3.56-3.14,7.52-5.77,7.9-5.31,8.27-4.82,4.13-2.16,4.32-2.17,8.84-3.85,9.2-4.58,9.2-4.81,6-2.9,5.65-3.13,5.82-3.37,5.64-3.38,5.44-3.85,5.46-3.62,5.26-4.09,5.07-3.86,5.07-4.33,4.89-4.34,4.7-4.57,4.88-4.58,4.33-4.81,4.51-4.83,4.13-5.06,4.13-5.29,2.82-2.41,2.64-2.41,4.89-6,4.69-6,4.13-6.51,3.58-6.74,4.7-10.12,4.51-9.88L617,730.13,620.91,720l3.76-10.36,3.39-10.36,3-10.6ZM214.05,384.46H568.11l5.83,320.62-42.85,23.36,34.39,20-1.7,4.33-2.25,4.1L559.65,760l-2.25,3.13L555.34,766l-2.45,2.89-2.26,2.89-5.26,5.29-5.64,4.82-3,2.41-2.81,1.93-3.2,2.17-3.19,1.93-3.38,1.93-3.2,1.68-3.57,1.44-7.71,2.17-8.07,2.17-7.9,1.69-8.09,1.44-7.88,1.2-8.27.73-8.09.48-8.26.49-6.77-.49-3.57-.24-3.95-.48h-7.89l-7.15.24-7.51.73-8.45,1.2-5.07,1.44-4.89,2.17-2.44,1.93-3.57-1-3.21-1.45-3.18-1.21-4.52-1.2-4.13-.24-19.54.48H338.65l-9.4-.24-9.21-.24-9.39-.48-9.22-.48-6.95-2.18-6.76-2.4L281,799l-13.16-6.26-6.2-3.38-6.2-3.85-9-5.78-2.62-2.17-2.64-2.41-2.44-2.41-2.26-2.4-2.25-2.65-2.07-2.89L230,762.17l-1.69-3.38-1.5-3.61,37-26.74-48.11-25.06Zm51.31,53.71,263.28-2.65L530.15,701l.19,3.61-.19,3.85-.38,3.86-.56,3.86-.76,3.37-1.12,3.13L526.2,726l-1.51,3.13-1.49,2.9L521.31,735l-1.88,2.65-2.06,2.64-4.89,4.82-2.64,2.17-5.63,3.86-3,1.68L498,754.21l-3.39,1.21-4.71,1.69-5.07,1.44-78-2.41-7.71,7.47-11.27-6.74H309.71l-3.76-.49-3.58-.72L299,754.45l-3.57-1.2-3-1.44-3.19-1.69-3-1.93L283.59,746l-2.82-2.18-2.45-2.4-2.25-2.66-2.26-2.89L271.94,733l-1.7-3.14-1.5-3.13-1.32-3.37-1.13-3.61-1.13-3.85-.75-3.62-.56-3.86V475.75ZM276.64,449,514,447.33l.74,46.73-1.31,10.36-1.87,10.35-1.89,10.12-2.25,10.36-2.64,9.88L502,555.24l-3,9.88L495.57,575,492,584.64l-3.94,9.63-4.14,9.63-4.51,9.64-4.51,9.15-4.89,9.4L464.75,641l-5.26,9.16-4.33,6L450.85,662l-4.52,5.78-9.39,11.08-4.89,5.54-4.89,5.29L421.9,695l-10.52,10.12-5.45,5.06L400.48,715l-5.83,4.58-5.82,4.34L383,728.44l-6,4.33-11.28,8.44-59.76.48-5.26-.73-4.89-2.17-4.33-2.89L288.84,733,286,728.93l-2.26-4.35-2.06-4.33-1.32-4.81-.94-3.62-.75-3.62L277.56,701ZM514.73,555.24l.95,149.84-.76,3.61-.74,3.37-1.13,3.38-1.32,3.37-3.38,6.26L506.28,728,504,730.85,501.77,733l-2.63,2.16-2.44,1.94-3,1.67L490.87,740l-3,1.21-3.19,1-3.19.48-95.29,2.17,41.91-39.5,4.89,1.2,5.07,1.2,4.89.48,4.89.24h5.07l4.89-.72,4.88-1,4.69-1.44,3.77-1.21,3.38-1.93,3.2-2.16,2.81-2.17,2.83-2.65,2.43-2.9,2.07-3.12,1.88-3.38,1.5-3.37,1.13-3.62.95-3.61.37-3.61v-3.85l-.19-3.61-.75-3.86-.94-3.61-.94-2.65-1.69-4.1-2.63-5-3.19-5.06-2.83-3.38Zm-213.3-56.12-2.63-1.94L296.36,495l-2.25-2.4L291.47,489l-1.68-4.81-.19-4.82,1.32-4.34,1.87-2.89,2.45-3.13,2.81-2.41,4.14-1.2,4.32-1,4.33-.72,6-.25,5.63.73,5.45,1.93,4.89,2.89,3.38,2.65,3,3.13.37,4.58v4.33l-.55,4.58-1.32,5.3-1.51,3.85L334,501l-2.82,3.13-2.26,2.17-2.63,1.93-3.76,2.17-3.37,2.41-3.39,2.65-3.94,3.61-2.63,3.37-1.7,3.86-.38,4.58,1.32,4.33,1.69,3.37,2.07,5.79,2.44,5.53,2.63,5.78,2.07,5.3-4.13-.24-4.14-.72-3.76-1-3.95-1.93-3.56-2.41-2.82-3.37-2.26-3.61-1.32-2.89-1.12-4.34-.94-5.54-.75-3.61L289.6,528v-3.13l.56-2.89,1.51-4.34,1.31-3.37,1.88-3.37,1.88-3.61Zm21.24,4.09-4.13,2.16L314.79,508l-3.4,2.89-4.13,4.33-3,4.34-1.69,5.06-.76,5.3.38,3.85.75,4.1,1.13,3.85,1.31,3.86,1.51,3.61,1.5,5.3-3.57-3.13-3-3.37-2.63-3.85-1.88-4.1-1.12-4.58-.19-4.57.37-4.58.75-3.38.94-2.88,1.13-2.65,1.13-2.9,1.88-4.09,2.25-4.1,1.7-2.4,1.69-2.66,3.38-6.26-4.51-.72-4.33-1.93-3.57-3.13-2.24-3.85L295.8,482l-.19-2.88,1.13-3.86,2.06-2.65,3.39-1.92,3.95-1.21,4.88-.73,5.26.25,5.07,1,4.89,1.69,3.95,2.16,3,2.9,1.88,4.09.18,4.34-1.5,4.57-2.45,4.34-3.56,4.09ZM333.39,515l.75-3.38,1.49-4.09,2.08-3.85,2.81-3.38,3.39-2.64,2.82-1.69,3.75-1.45,3.95-1,3.76-.72,2.63-1.22-3.56-2.16-2.83-2.89L352,483.46l-1.51-2.65.57-4.82,1.32-4.09,2.06-3.62,3.58-3.13,4.5-1.92,4.14-1,4.5-.72L376,462l4.14,1,2.82,1.45,2.63,1.45,2.26,1.92,2.06,2.65,1.5,2.65,1.13,2.89.57,3.14-.37,3.37-.94,4.09-.95,2.65L389,492.86,387,495.74l-1.69,1.94-3,1.92-3,1.68-3.2,1-3.56.72-10.15,1.45-5.07,1.2-4.89,1.45-9.78,3.37-4.69,2.41Zm-10,15.9,4.88-.49,4.51-.48,8.64-1.44,4.13-1,4.33-1.2,3.95-1.45,4.14-1.44,4.5-2.89,1.32-3.13,2.63-2.41,3.39-2.17,3.75-1.68,4.14-.73h3l3.95-.48,3.76-1,3.76-1.44,3.38-1.93,7.33-3.86,3.38-1.2,2.63-.24.94-4.82.94-4.33,1.13-5.78,1.13-4.58,1.31-2.89,1.7-2.89,3-3.61,4.69-3.38,4-1.92,12.59-4.58,6.58-2.17h5.82l1.88,2.41-.37,2.88-1.51,3.86L451,471.17l-1.5,1.69-3.2,2.65-1.88,2.41,3.39.72,2.81,2.41,1.32,3.86-.19,2.64-3.38.73-3.57.72-6.77,2.41-2.81,1.45-3,2.4L430,497.91l-1.13,2.89.57,4.1,1.12,2.89,3.19,4.1,4.52,3.85,2.64.24,4.12-1.21,5.08-3.36,3.57-3.14-.38-10.12.19-4.33.76-4.34,1.31-4.09,1.32-3.14,2.07-3.12,2.25-2.9,4.5-5.06,4.52-4.81,4.89-4.58,5.63-4.57,3.95-.73,3.76,1.45,1.69,2.65.37,2.65v3.85l-.18,4.09-15.79,16.38-2.82,5.31.38,4.82,2.25-1,3.39-2.89,3.38-3.61,3.95-2.17h3.56l3.95,1.92,2.07,2.9.94,3.61-.94,2.17-3,3.61-3.19,3.12-3.38,2.9-3.57,2.65-2.83,2.17L476,515.25,470,521l-3.19,3.61-2.63,3.86-1.89,3.13L460.42,536l4.33,1.2,4.33,1.44,4.13,1.69,3.94,1.92,3.38,1.69,3,2.17,2.63,2.18,2.63,2.88L486.92,554l-1.87,2.65-1.88,2.41L479.78,562,476,564.64l-4.14,1.69-4.33,1.2-3,.48h-8.84l-4.32-.72-4.88.48-1.31,5.78.18,3.13,1.51,4.58,2.26,5.06,10.33,16.62-39.47,66-3.76-1.44-3.76-1.69-3.75-1.93L403.86,661l-4.13-3.38-2.82-3.36.37-14.94V609l-.37-15.17-3.58-2.65L389.2,589l-5.83-2.4-5.82-1.93-6.21-1.44-6-1.21-6.76-.24-6.95-.24-3.39-.48-3.19-.24-3.2-.73-4.32-1.2-4.13-2.41-2.83-3.13-2.25-3.13L327,567.29l-.93-3.37,3-.73,3.19-.48,7.7-.48,7.9-.24,7.89.24,9.21-.47L367,559.1l-.76-2.65-2.82-1.69-7.7,1-6.95.73-7.34.47h-8.07l-4.14-1-4.13-2.4-3.77-4.1L318,545.13l-3.18-3.86-.2-3.37,1.88-2.89L320,532.6Zm15.41-21.45,2.82-5.05,2.06-2.66,3.95-2.64,3.95-1.44,3.19-1,3-.48,4.69-.49,3.76-1.44,2.82-3.13.56-3.37-.93-1.93L367,484.66l-3.95.25-3.19-.49L356.5,482l-.38-2.4.94-3.86,2.64-4.09,5.26-2.41,4.13-1h3.39l3.38.24,3.38.73,3.95,1.68,2.63,1.93,2.07,2.65.74,3.62-.94,4.33-1.87,3.85-2.45,3.62-2.81,2.89L377.18,496l-3.77,1.7-3,1-4,.24-4.13.72-3.95,1-3.95,1.2L350.68,503l-3.77,1.69-3.56,1.93Zm108.24-45-.94,3.85-18.22,12.29,11.65,4.82-4.14,1L431.11,489l-3,3.37-1.88,2.89-1.5,2.65L423.4,501l-5.63-1.68-.75-3.62-.19-3.37.37-3.61,1.13-3.61,1.69-3.38,2.25-3.13,2.82-2.65,2.26-1.93,4.51-2.89,4.51-2.41,4.89-2.16Zm34-1,.75,6.27L479,471.9l-2.45,1.92-2.26,1.93-2.07,2.17-2.06,2.41L468.32,483l-1.5,2.65-1.88,3.61-1.13,4.34-.56,4.57.18,4.34.94,3.37,4.14.73,4.7-.49,7-7.7,2.63,3.85L480,505.62l-4.33,3.85-2.81,1.2-2.45,1.7-3.19,2.4L464,517.66l-2.82,2.9-2.63,3.13L457,526.34l-1.32,3.37-7.7,9.4-13.15-1.46L433,534.29l1.69-3.14,1.69-1.2,24.24-18.06-.94-5.79-.55-6-.19-5.78-.2-6,3-4.58,3.38-4.33,3.76-4.1,3.95-3.85ZM333,539.11l6-1,3.56-.72L347.1,536l8.65-3.38,4.32-2.17,4.14-2.17,7.89-4.81,3.76-2.89,4.32-1.21,4.13-1.2L393,516.7l18.6-5.78,3.38-.72,3.76.72,4.14,1.69,3.94,2.89,1.88,2.89-.74,23.12,13.34,7.71-4.32.72-2.07,1.45-1.7,3.13-.75,3.38-.18,3.86.18,3.84.57,3.85.94,3.86,2.63,8.19,1.69,4.1,1.5,4.09,1.88,4.1,3.76,7.7,2.06,4.82-1.69,4.81-5.44,10.12-5.07,9.16-10.9,17.35-3,4.33-3.57,4.81-11.84-4.33,1.68-62.63,3.58-1.93,4.32-2.64,3.76-3.38,3.38-3.85,2.25-4.82-.18-5.3-1.32-3.13L421.71,568l-2.06,2.65L417,573.31l-3.2,2.17-4.51,2.17-4.7,1.68-4.7,1-5.07.24-4.7-.24-3.57-.49-4.51-1.2-5.64-2.17-3.56-1.69-3.77-1.2-5.26-.48-8.27-.48-4.7.23-3.57-.71-2.82-2.17,18-.24,3.57-1,3.57-1.44,3.21-1.45,3.75-2.89,1.69-3.13.19-3.37-.75-2.41-2.26-2.65-3.19-2.65-3.57-1.45-4.7-1-3,.72-3.75,1-10,1.2-11.46.48-3.57-2.41-3-4.09.75-3.61Zm117.64,15.65,16.35-1.2,1.32,2.65-2.82,2.17-4.51.72-3.19-.48-3-1Zm22.93,88.64,2.63,2.9,2.26,3.13,1.88,3.61,1.31,3.38,1.13,3.85.57,3.61V668l-.19,3.61-.95,3.86-1.32,3.85-1.68,3.37L477,685.8l-2.44,3.14-2.82,2.41-3.19,2.4-3.39,1.93-3.57,1.68-3.75,1-3.76.72-3.76.24-3.76-.24-3.76-.72-3.75-1-3.58-1.44,7.89-8.91,7.53-8.91,5.25-6.51,5.08-6.51,4.5-6.49,4.89-8,1.88-4.1ZM284.15,598.61l5.45-2.18,4.88-2.16,3.57-2.41,2.64-2.65,3.75-2.65,3.95-1.68,2.82-.25,3,1,1.88,1,4.32,3.37,4.13,3.61,3.76,3.85,3.39,4.1,1.87,2.9,1.69,3.12-9.77,1.69-10,1.21-9.95.71-10.16.73h-4.13l-6.2-1-2.64-2.17-.55-2.89,1.49-3.61Zm59.57-1.93,4.51-4.34,3.19-1.93,3.76-1,3.95.24,3.77,1.69,4.13,1.68,3.94-.48,3.19-2.41,2.26,2.89,1.69,3.14,1.88,2.89,1.51,3.36,1.32,3.62-8.47,1-8.45.72-16.91,1-3.2-.24-5.27-1.21-.74-2.4.56-1.69,2.63-4.57Zm9,.71,4.12-2.88h3.2l4.14,1.69,3.38,1.19,3.38,2.18,1.69,2.65-9.21.72-10-.25L351.24,601Zm-65.41,6.76,10.9-4.1,3.19-3.85,2.45-2.17,4.51-1.69h4.32l3.76,1.93,3.57,2.65,2.26,2.65.75,3.37ZM231.15,327.61l5.26-1.21,5.27-1,5.07-1,5.26-.73,10.53-.47h10.52l6.77.71,8.26.49,5.08-.49,3.94-1.2L308.39,318l3.39-2.9v-3.37l-2.26-1.21-3.94-.24-3.39.24-4.14.25-4.13-.25-4.13-.48-4-.47-4.33-.73-8.27-2.41-3-2.41,2.82-2.65,2.63-3.86,1.87-2.89,1.7-3.13,1.5-3.13-.18-5.54-.57-4.58-1.13-4.57-.37-2.41,2.45,3.37,2.81,2.66L286.4,279l2.82,1.2,3,.24,4.13-.48,4.14-1.69,2.63-1.92,1.88-2.41L293.35,271,290,268.59l-.56-2.65,1.13-4.1,3.76-3.61,3.18-2.64,3-3.14,3.57-3.86,1.31-1.2,3-2.17,3.19-1.44,6.77-3.13L325.3,238l13.91-4.82-.94,12,4.89-1.92,3.94-3.13,2.64-3.37,1.5-2.66,1.13-2.64.94-2.89,5.26-1.21,4.51-.24,3.38.72-4.7,4.34-4.32,4.58-4.32,5-3.95,5.06-3.58,5.3-3.37,5.54L339,263.29l-2.83,6-4.89,12.05L327,293.88l-5.64,18.79-1.49,6.27L317,332l-1.12,6.5-1.88,13-.76,6.5-.56,6.5-.56,7.47H283l-2.06-5.3-3.2-4.58L273.63,358l-4.89-2.89-5.07-1.93-5.27-1.45-5.45-1h-4.5l-2.26-3.85Zm5.26,65h15.42l6,22.64,6-22.64h15.41V430h-9.58V401.32L262.16,430h-8.84L246,401.32V430h-9.59Zm73.86,31.08H296.74L294.86,430h-12l14.47-37.33h12.78L324.37,430H312Zm-2.44-8.19-4.32-13.26-4.14,13.26Zm19.35-22.89h33.27v7.46l-21.24,21.68h22.17V430H325.12v-7.71l21.23-21.68H327.18Zm63,31.08H376.61L374.72,430h-12l14.48-37.33H390L404.23,430H392Zm-2.45-8.19-4.32-13.26-4.13,13.26Zm14.11-22.89h35.69v9.16h-12V430H413.82V401.81h-12Zm41.15,0h11.84v27.94h18.42V430H443Zm59,31.08H488.43L486.74,430H474.52L489,392.65h12.77L516.05,430H503.83Zm-2.63-8.19-4.14-13.26-4.13,13.26ZM520,392.65h10.9l14.48,20.47V392.65h11.08V430H545.38L531.09,409.5V430H520ZM317.79,768.91h11.28l4.32,16.38,4.32-16.38H349v27h-7V775.17l-5.45,20.71h-6.39l-5.44-20.71v20.71h-7Zm53.75,22.65h-9.78l-1.31,4.32h-8.83l10.52-27h9.2l10.54,27h-9Zm-1.89-6-3-9.64-3,9.64Zm14.29-16.62h24.24v5.3l-15.6,15.9h16.17v5.77H382.44v-5.53l15.41-15.66H383.94Zm45.67,22.65h-9.78l-1.32,4.32h-8.64l10.34-27h9.4l10.52,27h-9.21Zm-1.69-6-3-9.64-3.19,9.64Zm10.33-16.62h25.94v6.51h-8.84v20.46H446.9V775.42h-8.65Zm29.88,0h8.65v20.24h13.34v6.73h-22Zm-69.34-245.7-3.2,5.78h4.32l2.07-2.17,1.5-2.89,3.76.48,3.2,1.69,1.69,1.68L414,530l1.5,2.65,1.32,2.65,1.5,4.34-.56,3.37-3,1.68-2.26-1.2-.37-3.13.18-4.82-3.94-2.65-.19,2.41,1.13,2.65-.19,3.61-3.57-1-2.44-3.61-2.07,1.2-2.25,2.65-3,1.44-3.94-.72L389,539.35l-2.63-1-4.5-.72-1.51-1.44,1.31-3.37,1.32-4.58,2.45-2.88,3.38-1.93ZM328.5,627.75l3.94-7.47,3.19-5.3,2.83-1.44,4.51-1.93,3.94-.24,3.95.72,3.77,2.41,3.19,2.65,2.25,2.41,1.31,2.17,1.52,2.88,1.68,3.14,2.82.72,4.7,2.41,5.45,3.38,3.38,2.41,1.89,3.61-.57,3.84-2.44,2.66L356.69,654l3,33.48,6.2-2.65,2.44-1.2-6.2-9.64,8.64-2.41,8.83-2.16,8.84-1.93,9-1.21-9.78,34.45-9.95-3.85L345,724.83,312.9,696.89l-9,5.54-11.09-32,24.24,2.9,7.9,1.68v9.64l7.14,2.17,4.13-31.08-4.32-1.44-4.13-1.69-5.27-2.4-6.2-2.41-2.81-2.65-1.69-3.62.18-4.58,2.07-4.33ZM342,655.69l6.58-1.92,2.07,1.92.56,8.68.75,7.71.76,7.46,1.12,7.71.76,4.58.93,5.06L375.1,684.6l-4.5-7.46L389,673.28l-3.56,17.82-7.71-2.16L346,717.36l-31.76-26.73-4.89,3.12-10-16.61,19.74,2.64-1.7,6,19.17,10.36ZM346.16,615l5.46,1.44,3,2.18,1.68,3.13.19,3.37L355.37,628l-2.06,2.17-3,1.69-4.32.72-4-.72-3.19-1.94L336.58,627l-.75-3.36.75-3.14,1.69-2.4,2.25-1.7,3.2-1.2Zm0,3.14,4.14,1,2.25,2.41.2,3.85-2.45,3.13-3.2,1-3.38-.23-2.82-1.93-1.5-3.86,1.88-3.37,3-1.68Zm-57.5,46.73-4.51-2.66,1.88-1.92,2.81-2.17,2.83-1.44,3-1,4.13-.72,4.89.72,4.14,1.45,4.5.47,2.83-1.19,3.38-.73,3.76,1,2.82,2.17,5.82.72-.18,5.06-4.14.24-3.95-.24-3-1.21-10.34,1.93-5.45-1.45L302.57,662l-3-2.17-3.38.24-3,2.16Zm75.55-1.45-3.2-4.09.94-1.45,4.7-3.13,1.88-.24,5.07,1,3.95.24,7.9-.72,4.12,1.45,2.45,3.13L390.89,662l-3.38.95-3.38-.95-2.45-.72L376.8,661H373l-3.39-.24-3,1ZM285.09,649l-1.5-4.09,3.75-1.94,4.13-1.44,3.39-1,1.88.25,4.32,1.2,4.89.24.56,2.41-1.88,1.69h-3.2l-4.32-.48h-3.56l-2.82,1.44L287,648.7ZM324,636.42l4.32-.48,4.51-.48,4.7-.48h9.21l4.69.23,4.52.49,4.69.48,5.64,1.21,3.19,2.65-.74,1.92-2.64,1.93-41.33,1-2.83-2.66-.18-2.65Z" fill="currentColor" fill-rule="evenodd"/>
  </g>
</svg>
