<svg xmlns="http://www.w3.org/2000/svg" viewBox="0 0 747 227.5">
  <g id="logo">
    <g id="mazatlan">
      <path d="M738.4,148.9l-7.9.7-7.2-9.2c-5.2-6.5-13.1-17-23.6-30.1,0,10.5,0,21.6,1.3,32.1l.7.7,1.3.7,1.3.7,1.3.7,1.3.7,2,.7h1.3l-.7,4.6H687.3l-.7-3.9,7.2-2c0-3.3.7-10.5.7-21a204.56,204.56,0,0,0-.7-21,26.74,26.74,0,0,0-6.5-2.6l.7-3.9h15.1c3.3,5.9,13.8,19,30.1,39.9a179,179,0,0,0-1.3-32.7,34.21,34.21,0,0,0-8.5-3.3l.7-3.9h22.2l.7,3.9-7.2,2c-.7,4.3-1.4,20.6-1.4,46.2"/>
      <path d="M638.9,145.6l-.7,3.9H616.6l-.7-3.9,6.5-2c3.3-7.9,8.5-21.6,15.7-41.3l2-7.9a82.2,82.2,0,0,1,13.1-.7c.7,1.3,1.3,4.6,2.6,8.5,6.5,17.7,11.8,31.4,15.7,41.3l6.5,2-.7,3.9h-24l-.7-3.9,7.9-2a130.07,130.07,0,0,0-4.6-12.4l-21,.7-2,6.5-2,5.2Zm-6.6-60.9c7.9-4.6,16.4-9.2,24.9-13.1,2,2,2.6,4.6,3.9,7.9l-1.3,2-25.5,7.1-.7-.7Zm4.6,40.6h17.7c-3.3-9.8-6.5-18.3-9.2-24.9-3.2,7.9-5.9,16.4-8.5,24.9"/>
      <path d="M564.2,145.6l7.2-2a104.12,104.12,0,0,0,.7-15.1V114.7a91.17,91.17,0,0,0-.7-13.8,22.79,22.79,0,0,0-7.2-2.6l.7-3.9h23.6l.7,3.9-7.2,2a104.12,104.12,0,0,0-.7,15.1v14.4c-.7,4.6,0,9.2.7,13.8,3.3,1.3,5.9,1.3,9.2,1.3a32.15,32.15,0,0,0,8.5-.7l2.6-10.5h6.5v15.7H563.6Z"/>
      <path d="M515.8,145.6l7.2-2a104.12,104.12,0,0,0,.7-15.1V99.7h-1.4a46.21,46.21,0,0,0-9.8.7l-2,9.8h-7.2V94.5h26.2c10.5,0,18.3,0,22.9-.7l2,2.6c0,3.3-.7,7.9-1.3,13.8h-6.5l-2-9.8c-3.3,0-5.9-.7-9.2-.7h-2v29.5a91.17,91.17,0,0,0,.7,13.8,22.79,22.79,0,0,0,7.2,2.6l-.7,3.9H517.7Z"/>
      <path d="M458.8,145.6l-.7,3.9H436.5l-.7-3.9,6.5-2c3.3-7.9,8.5-21.6,15.7-41.3l2-7.9a82.2,82.2,0,0,1,13.1-.7c.7,1.3,1.3,4.6,2.6,8.5,6.5,17.7,11.8,31.4,15.7,41.3l6.5,2-.7,3.9H473l-.7-3.9,7.9-2c-1.3-3.9-3.3-7.9-4.6-12.4l-21,.7a39.64,39.64,0,0,0-2,6.5l-2,5.2Zm-2-20.3h17.7c-3.3-9.8-6.5-18.3-9.2-24.9-3.2,7.9-5.8,16.4-8.5,24.9"/>
      <path d="M384.1,144.3l4.6-6.5,5.9-7.2,5.2-7.2,5.9-8.5,5.2-7.2a46.71,46.71,0,0,0,5.2-7.9H394.5l-2,9.8c-2,0-3.9.7-6.5,0-1.3-8.5-2-13.1-2-13.8l2-2.6c5.9.7,12.4.7,21.6.7h19c.7,2,2,4.6,2.6,6.5-15.7,21.6-26.8,35.4-31.4,42.6h22.3l2.6-9.8h6.5v15.7H386.6c-1.1-.7-1.8-2.6-2.5-4.6"/>
      <path d="M338.3,145.6l-.7,3.9H316l-.7-3.9,6.5-2c3.3-7.9,8.5-21.6,15.7-41.3l2-7.9a82.2,82.2,0,0,1,13.1-.7c.7,1.3,1.3,4.6,3.3,8.5,6.5,17.7,11.8,31.4,15.7,41.3l6.5,2-.7,3.9H353.2l-1.3-3.9,7.9-2a130.07,130.07,0,0,0-4.6-12.4l-21,.7-2,6.5-2,5.2Zm-2-20.3H354c-3.3-9.8-6.5-18.3-9.2-24.9-3.2,7.9-5.8,16.4-8.5,24.9"/>
      <path d="M255.1,145.6l-.7,3.9H232.1l-.7-3.9,7.2-2c.7-5.9,1.3-13.8,2-23.6a160,160,0,0,0,.7-18.3,22.1,22.1,0,0,0-6.5-3.3l.7-3.9h21.6a331.64,331.64,0,0,0,15.1,36.7c8.5-21,13.1-33.4,14.4-36.7h21l.7,3.9-7.2,2.6,1.3,27.5a51.65,51.65,0,0,0,2,14.4c.7.7,2.6,2,6.5,2.6l-.7,3.9H286l-.7-3.9,7.9-2a52,52,0,0,0-.7-8.5c-.7-4.6-.7-9.8-.7-16.4s-.7-11.8-.7-15.7l-17.7,40.6a15.12,15.12,0,0,1-7.9,0c-1.3-2-3.3-8.5-7.9-18.3s-7.2-17-9.8-22.3l-.7,19.6v19.6l.7.7c.7,0,.7.7,1.3.7l2,.7,2,.7,2,.7"/>
    </g>
    <path id="escudo" d="M73.8,17.9V16.4l.1-1.4.2-1.4.7-2.8.5-1.3.6-1.3.7-1.3.5-.8.6-.7.6-.7.7-.6.7-.6.6-.7.7-.5.8-.4.8-.4.9-.5L85.2.4l.9-.2,1-.1L88,0h1l1,.1.9.1.9.2.9.2.9.3.9.3.8.4.8.4.7.5.7.6.7.6.7.7.6.7,1.1,1.4.5.8.5,1.2.4,1.2.3,1.2.2,1.3V15l-.1.9-.3,1.3,2.1.3,3.1.7,1,.3,2,.6,1,.4,1,.3,2,.8,1,.4,1.9,1,1,.7.3.8.3,1.1.2,1.1V27l-.1,1.1-.2,1.1-.3,1.1-.3.7-5.5,2.1,2.1,1,2.1,1.1,2,1.1,2,1.2,2,1.2,1.9,1.3,1.9,1.3,1.8,1.4,1.8,1.5,3.4,3.1,1.7,1.6,1.6,1.7,1.5,1.7,1.5,1.8,1.7,1.8.8-.2.4-.7.1-.9.7-.7H145l.3.7-.2.4-.7,1.5.4.9.5.3.6.1.6-.5.4-.6.4-.6.3-.7,1.6.1.7-4.2.3-.5-.3-.6-.8-.8-.3-.8.2-.8,1.1-.1.1-.3-.7-.7-.3-.9.1-.7,1-.2.3-.1-.2-.7v-.7l.1-.7.1-.5,1.3-.3.6,1.1.3.8.3.4,1.1-.4.7-.1.4.8v.8l-.1.8.2.9.7.1.8.1-.2,1-.4,1.1-.7.8.2.6.3.1.9.1.9.1.9.2.8.3-.7-.6-.8-1-.3-.9.1-.9,1.4-.1-1-1.6.1-1.1.3-.2.6-.5-.4-1.2.3-.9.7.2h.4l.4-1,.5-.7.9,1.3,1.9-.3.1.7-.1,1,.8.8v.8l-.7.9.2.6.9.3.4.8-.2,1-.5.9v1l1.1-.2,1.3.1,1.2.3,1.2.6,1,.7-.1,14.9-.8-.2-.8-.2-.7-.3-1.1-.1-1.1.2-.4.5-.1.9.2.9.6.6.9.3.8.1,1-.2.5-.3,3.3.2-.3,1-.4.6-.6.6-.9.6-1.7.8-1.5.6.3,2.5v2.5l-.1,1.2-.2,1.2-.3,1.2-.5,1.5-.6,1.2-.7,1.1-1,.9-1,.7-1.6.3-.7.1h-1.4l-.7-.1-.7-.1-.7-.1-3.5-.5-.8.7-.9.8-.8.8-.7.8-1.3,1.8-.6.9-.5,1-.2,7,1,.9,1,.9.9,1.1.8,1.1.7,1.1.7,1.2.7,1.2.6,1.2.5,1.2.4,1.3.3,1.3.3,1.3.2,1.3.1,1.3.1,1.3v3.7l-.1,1.2-.1,1.1,2.4-.2,1.2-.2.9.1,1,.2,1,.3,1,.3.9.4,1.2.6,1.4.5.9-.4,1-.4,1-.2,1-.1,1,.2,1,.3,1,.4.7.4.8.6.7.6.7.7.6.7-5.5,7.2-.6,8.2-5.9,9.6-.8.7-.8.6-.9.5-1,.5-1,.5-1,.4-1,.3-1,.2-1,.1-1,.1h-1l-1-.1-1-.2-1-.2-1-.3-1-.4.6,1.9.6,1.9.4,1.9.4,1.9.3,1.9.3,1.9.2,2,.1,2v3.9l-.1,1.9-.2,2-.3,1.9-.8,3.9-.5,1.9-7.4-5.6-1.3,2.9-.7,1.4-.8,1.4-.9,1.3-.8,1.3-.9,1.3-2,2.5-1,1.2-1.1,1.2-1.1,1.1-1.1,1.1-2.4,2.1-1.2,1-2.4,1.9-2,1.4-2,1.3-2,1.3-2.1,1.2-2.1,1.1-2.2,1.1-2.2.9-2.3.8-1.8.8-.9.5-.9.5-1.7,1-.8.6-.8.6-1.5,1.2-1.5,1.3L98,220.8l-1.3,1.4-5,5.3-2-2.1-1-1.1-1.1-1-2.1-2-2.2-1.9-1.6-1.2L80,217l-1.7-1.1-1.7-1.1-2.6-.9-2.6-1-2.5-1.1-2.5-1.2-2.5-1.2-2.4-1.3-2.4-1.4-2.3-1.5-2.2-1.7L52.3,202l-2.1-1.8-2-1.9-1.1-.9L38,184.8l-7.1,5.7-.7-1.9-.6-2.1-.6-2-.4-2.1-.3-2.1-.3-2.1-.1-2.1V174l.1-3.2.1-1,.1-1.1.1-1,.3-2.1.5-2.1.6-2.1.7-2,.3-1,.4-1-1.3.3-1.3.2-1.3.1-1.3.1H24.6l-1.3-.1-1.3-.2-1.3-.3-1-.3-1-.4-.9-.5-.9-.5-.9-.6-.8-.6-.8-.7-.7-.7-.4-.2-.6-.7-.6-.7-1-1.4-.5-.8-.4-.8-.3-.8-.4-1.3-.3-1.3-.1-1.3L9,142.5l-.3-1.4-.3-1.3L8,138.5l-.6-1.6-.6-1.1-.8-1-.9-.8-.8-.5-2-1.1L0,131.3l.1-.7.5-.7.6-.6.9-.7.8-.4.8-.3.8-.2.9-.1H6.9l.7.1.7.1,1.4.3.7.2.7.3,1.2.3,1.3-.1,1.1-.2.7-.2.6-.3,1.2-.4,1.1-.2,1.4-.1h.9l.7.1.7.2.7.2.7.3v-3.4l-.1-1.7-.3-2.7-.1-1.8v-1.8l.1-.9.1-.9.2-.9.3-1.2.4-1.2.5-1.2.6-1.1.7-1.1.8-1,.8-.9.9-.9,1-.9,1.1-.9-.1-2.2V97.8l-.1-.7-.1-.7-.2-.7-.2-.7-.3-.7-.3-.7-.3-.6-.3-.6-.4-.6-.9-1.1-.5-.6-.4-.4-.6-.5-9,.4h-1l-1-.3-.9-.4-.7-.7-.6-.8-.5-.8-.3-.9-.2-.7-.1-1-.3-6.7h-3l.6-11.1-1.1-3L6.3,61.9,5,61.5l-.4-.7.2-.7v-4l.1-1.5.2-1.1.4-1.1.5-.6.6-.3.1-.9V49.5l.3-.9.6-.7.6-.4.7-.2,1,.5.3.8v.6l1.6.8.7-.3.7-.2.7-.1h.7l.7.1.8.2.7.2h.9l.3-.8.2-1.5,2.7-.2.4-6,.4-.6.7-.6.9-.2.8.2,1,.7,1.4,6.4.3,1.1.1,1.1-.1.6.4,1.1.4,1.1.7,1.2.9.6,1.1.9.5,1,.1.8v.8l-.1.9,2.5.5v-.8l.1-1.1-.1-.7L33.1,55l.6-.2,1,.2,1.5,2.6,1.4-1.9L39,53.8l1.5-1.9,1.6-1.7,1.7-1.7,1.7-1.7,1.8-1.6,1.8-1.5L51,42.3l1.9-1.4,2-1.3L59,37.1,61.1,36l2.2-1.1,2.2-1-1.4-.7-1.4-.7-1.4-.8L60,30.8l-1.4-1.1-.4-1.2L58,27.2V25.9l.4-1.3.7-1.1.7-.7.6-.4L61,22l.6-.4,1.2-.7,1.3-.6.7-.2,3.6-1,3.6-.9Zm11.8-2.3V14.2l.1-.7.2-.8.4-.9L87,11l.9-.6,1-.2,1,.1.8.3.7.6.6.7.3.6.2.8.1.8v.8l-.1.8-6.9-.1ZM26.4,134l.3.9.3.9.2.9.1.9v2l-.1,1-.2,1.2-.3,1.1-.6,1.2-.6.7-.6.6-.7.4-.7.3-.9-.2-.9-.5-.8-.6-.7-.7-.6-.8-.4-.9-.2-.9-.1-.9.2-1,.2-.7.3-.7.4-.7.4-.6.5-.6.6-.5.8-.7,1-.6,1-.4,1.1-.3Zm6-72.6.4,1.1.6,1.8-.6.7-.4,1-.1.9v.7l.2.8.3.8.4.7.5.7.6.6.7.6.7.4.8.3L36,74.8l-.7.3-1.1.4-1.1.4-1.1.4-1.1.3-1.3.9-1.3.8-1,.6-1.1.5-1.1.4-1.1.3-.7.1-1,.1-1-.1-.7-.4-.3-.4-.3-.9-.2-.9-.5-1.1V73.7l.3-1.4.5.6.3.7.6.5.7.2,1-.2,1-.5.2-.6.1-1.2V70.6l-.4-3.2.8.2v.8l.4.7.6.5.7.3.2,4,.4.7.7.8.9.8.7.1.7-.4.7-.7V64.5ZM144.5,71.5l2,.8.7.1h.8l.5-.1.9.5.6.6.5.6.9.2.7.1.7.1,1-.2,1.2-.6,1.3-.4,1.2-.4h1l.7.1.7.2.7.2.7.3v1.1l-.1,1.1-.2,1.1-.4,1.3-.5.3h-1l-1.4-.6-1.2-.4-1-.3-1-.4-.9-.5-.8-.6-2.2-.9-1-.3-1.3-.2-1.2-.3-.9-.4-.8-.5-.6-.7Zm5.7-15,.1,5.6-3.5.7v-.6l.1-1.2.3-1.6.3-1,.5-.9.7-.7.9-.3ZM45.6,144l.6,16.7-7.6-7Zm89.6-6.8.8,2.2.4,1.1,1,2.1,1.1,2,.7,1,.7.9.7.9.7.9.7.9.8.8.8.8.9.8.9.8-1,1.2-1.1,1.2-1.2,1.1-1.2,1.1-1.3.9-1.4,1-1.3.8-1.5.8Zm21.6-6.5,1,.2.8.5.9.9.6.8.6,1.1.5,1.1.3,1.1.3,1.2.2,1.4v1.1l-.1,1.1-.3,1.1-.4.8-.6.7-.7.4-.8.1-.8-.3-.8-.5-.9-.9-.6-.8-.6-1.1-.5-1.1-.3-1.1-.3-1.5-.1-1.1v-1.1l.1-1.1.3-1.1.4-.8.6-.7.7-.4Zm-14.5-24.9.6-.5,1.3-.8.7-.3,1.5-.4.7-.1,1.2-.2.8.3.4.4.4.7.3.9.1,1.2-.2.9,2.3.1.3.4.1.6.1,1.3v.8l.9,1.6-.7.1-.7.6-.3.8-.4.8-.5.5-.7.3-1-.2-.6-.4-1-.1-.1.7.2.3.7.5-.9.9-1,.3-1-.2-.5-.7-.2-.6-.2-.9-.6.3-.8.2-.8.1-.7-.2-.8.1.4,1,.3.5.6.2,1.1.2,1.4.2.4.6-.2.7-.4.8-2.3-.5-.5.2.7.4.7.7.1.7-.5.5-.7.2-1-.1-1-.4-.2.7.3.4.5.3.7.2.9.4.2,1-.2,1.1-.6.3-.8-.2-1-.1-.1.7-.6.6-.7-.3V112l.6.3,1.4.4,1.3.4.5.6.6.4.8.2.8-.1.7-.3.7-.7.3-.8-.4-.4-1,.7-1.1.3-.7-.4V112l.5-.3.7-.1,1.1-.3,1.2-.7.1-1.1-.6.1-.7.3-.7.1-.7-.2-.7-.7-1.4,1.8-3-.6v-1l.3-.9.5-.9.6-.7.4-.4Zm-105,.8.8.6.7.6.7.7.6.8.3.6.2.7.1.7v1.1l.4.7-.1.5-.6.7v.7l.7.4.7.3v1l-.1.9-.4.7-.5.5,1.7,2.3.1.8v.8l-.1.8-.2.8-1,1.8-.4-.4V125l.4-.8.3-1.2-.6-.3-.6.6-.9.6-.7-.2V123l1.2-1.6.3-1.1h-.7l-.8.3-1,.7-.7-.3-.7-.4-1,.2-.5.5-.7.6-.7.2-.9-.3-.9-.5-.9-.4-.6.3v.6l.3.8.6.3,1,.9-.7.2-1.2.2-1.4.4.2.6.5.6.6.6.8.4,1,.8.8.3,1-.1.7-.1,1,.2,1,.4.7.2.9-.2,1.6-.8.8-.3.9.3.3.7.3,1-.2,2-.3,1.9-.3,2-.4,1.9-.2.7-.2.7-.8,2-.5.9-.5,1-.5.9-.6.9-.6.9-.7.9-.6.7-.7.6-1,.5-.6.2-1-.4V146l-.5-.3-.4.4-.7,1.1-.7.2-.5-.9.1-.6.3-.9-.3-.8v-.8l.2-1.1.4-1,.3-.9v-.9l-.1-.9-.2-.9v-1.1l1.7-.3,1.7-.1h5.2l.6-.7L39,135l-1.3-.1-.6-.6.2-.4.6-.9-1.1.1-.8-.2-.7-.4-1.1.1-.6.4-.8.2-.9-.2-1-.2-.5.3.2.4.9.9-.4.4-.7-.2-.5-.5-.3-.7-.2-.9-.1-.7-.5-.8-.4-.8-.3-.9-.3-.8-.6-2.3-.5-2.4-.2-1-.1-.9-.1-1-.1-2V117l.1-1.2.3-1,.4-.9.8-.7,1.2.3,1.3.6,1,.8.5.8.3.7.5.9.7.1.2-.6v-1l1.3-.3.3.4-.1.4-.6.7.3.5.7.2.6.4.4.7.7.4h1l1.1-.4.5-.5.5-.7v-.8l-.8.1-.4.9-.7.2-.7-.1-.9-.7-.1-.7.4-1-.3-.8.4-.5.9-.6,1-.7-.2-1.1-.6.3-.7.2-.7-.4-.1-.6-.5-.5-.5.1-.7.4-.7.4-.8.2-.8-.4v-1l-.7-.3-.5.1-.6,2.3-1-.6-.6-.7-.3-.6-.3-.7,1.2-1.5.3-.7.7-.7,1.1-.8.9-.4.7-.1.5.1.9.2.9.2.9.3Zm1.2-.6-1.3-.3-1-.4-.9-.5-.9-.6-.3-.4V97.1l-.3-.8-.3-.8-.7-1.6-.7-1.6-.8-1.5-1-1.7-.7-.8-.6-.7.3-.9.7-.2,3,3.7,1,.2,1,.1,1-.1,1-.2,1.1-.5L39,89l.7-.9.5-1.1-.4-.3-.5.6-.9.4-1.1.2-1.2-.1.5-1.4,2-.6-1.3-1.5.2-2.1-1.9.9-2.1-1.3.1,2.4-1.4,1.6,2.3.5-.2,1.4-1.2-.3-1.2-.7-.5-.6L31.1,83l-1.2,1-.1.5v.7L16.4,86.4l-.7-.8-.4-.6-.3-.7-.3-.8-.3-1.2L14.3,81V78.5L15.5,71l.2-1.1.1-.8.4-.8.7-.1.8-.3.7-.3.6-.4.8-.7.8-1,.7-.7.1.6-.1.7-.2.7-.5.6-1,.7-.4.6-.4,1.1-.2.9-.3,1.5L18,74l-.1,1.3.1.9.2,1.9.4,2,.3,1,.5,1.2.8,1.2,1,.1.2-.3,1.5-.8,1.5-.6,3.1-1.1,1-.4.9-.4,2.3-1.2L34,77.7l1-.3.8-.2,1.3-.5,1.3-.8.4-.4,4.2-.1.6.7.6.4.9.5,1,.4,1,.3,2.1.3,1.3.2.7.2,1,.3,1,.4.9.4.5.4.7.8.5.9-3,.8-.6-.7-.5.1-1.2,1.5-2.2-.7-.2,1.2-.7.1-.6-.7-.7.1-.2.4-.2.7-.2.6-.9.6-1.3.7h-.7l-.4,1.3L42,89l-.3,1.3-.2,3.1-.1,3.3.2.9.4.8.7.8.9.4h1l1-.3.1,5.3-.7-.2-.7-.7-.1-.7.2-1.1-.3-.8-1,.7-1.1-.3-1-.1-.3.6.2.8-.2.5-.6.8-.3,1,1.7.3,1.3,1.8,1.4-1.9.7-.1.8.3.3.3-.4.9-.7.8-.9.5-1.1.4-1,.1-.6-.4ZM77.7,15.8l-.1-1.2V12.7l.1-.8.1-.7.2-.8.2-.7.3-.7.7-1.3.4-.6.5-.6.5-.6.7-.5.6-.6.6-.4.7-.4.7-.4L86,2.9l1.3-.3,1.3-.2h1.3l1,.1.7.2.7.2.7.3,1.3.7.6.4.6.4.4.5H93.8l-1.9.2-.9.2-1,.2-1.8.6-.7.3-.7.4-.6.4-.6.5-.6.6-.5.6-.5.6-.3.7-.4.6-.2.6-.3,1-.2,1-.1,1.1v1Zm21.3,0H95l-.1-1.1V12l-.2-1.2-.3-1-.6-.9-.9-.7-.7-.6,1-.2h.9l1,.2,1,.4,1,.6.8.8.6,1,.4,1.2.3,1.3v1.3Zm12.2,6.8-2.2.2-2.2.3-2.2.4-2.2.4-2.2.5-2.1.5-2.1.6-2.1.7-2.6.8-1.2.6-1.2.6-2.8.3-1.4.2-1.4.2L72.5,31H71l-.7-.1-.7-.1-.7-.2-.7-.2-.7-.3-1.4-.7-1.3-.8L64,28l-.7-.7-.2-.7.2-.9.5-1.1.5-.9,2.5-.9,2.5-.8,2.5-.7,2.6-.7L77,20l2.6-.4,2.6-.4,2.7-.3,1.7-.1,1.7-.1H90l1.7.1L95,19l1.7.2,3.3.4,3.2.7,1.7.4,1.6.4,1.6.4,1.6.6ZM95.6,27.9l2.3-.7,2.3-.6,4.8-.9,2.4-.3,2.4-.2,2.4-.1,2.7.1.7.6.3.9-.2.9-.2.6-1.2.5-1.3.4-1.3.3-1.3.2-1.3.2-1.3.1-1.3-.1-4.7-.4-1.3-.1-1.3-.2-1.3-.3-1-.3-.7-.3Zm-16.9,5-.7,1-1,.8-1,.6-.6.4-.9.4-1,.3-1,.3-1,.3v.8l-.4.7-.6.4-.9.2-1-.1-1.2-.4-1.1-.1-1.3.2-1.1.4-1,.5-.6.4-.8.7-.7.8-.1,1.2-1.4-.1-.7.4-.3.3-.2.7-.2.7L57,47.2l-.3.4-.4.9-.1,1.1-.2.9-.5.7-.2.7v.7l.1.5L56.5,55l-.9-.8-1.2-.6-.8-.2-.3-.4-.3-.5-.7-1.4-.9-.4-.2.6V52l.4.7.7,1.1.6,1.3-.4.6-.2.1.6.8.5,1-.3,1.1-.7,1.6-.8,1.6-.8,1.6L50,65l-.7-.5-.8-.4-.8-.4-.8-.6.2-.9.5-1.3.3-.6.3-.7.2-1.1.4-.7.7-.4.4-.7-.2-.7-.4-.2h-.8l-.6.6-.6.5-.8.4-.9.3-.9.1-.4-.5-.3-.8-.1-1v-.9l-.6-.3-.5-.2.8-1.1,1.7-2,.9-1,.9-.9,1-.9,1-.9,1-.8,1-.9,1-.8,1-.8,1.2-.9,2.2-1.5,2.3-1.4,2.3-1.3,2.4-1.2,2.4-1.1,1.2-.5,1.3-.5,2.5-.8,2.6-.7,2.6-.6ZM59.6,43.7l-.2,1.5.6.3.7-.4.8.1-.4.8-1,.7-1-.2-.5-.5-.2-.5.4-1Zm1.6-.1v-.9l.7-.3.8.2v1.5l.4.3.9-.1.1.8-.7.5-1,.1-.3-.6.1-.9-.5-.7Zm.7-2.6.6-.4.9-.4,1,.2.4.7-.2.8-.5,1-.8.2-.3-.5-.5-.8Zm3.3-1.1.8-.6,1.3.1.8.3.2.7-.6.4-.5.1L66,40.8l-.7-.6Zm1.6,2-.2.8-1,.7-.5-.6.5-.8.6-.2Zm2.8-2h1.1l.8.3.7.6.3.6.1.7-.7.2-1-.1-.6-.4-.7-.7Zm3.8-2.2.8-.3.6.3.7.7.1.9-.4.3-.6-.6-.3-.7-.5-.3Zm-.1,2.5.3,3.1m3.1-4,.7.6.2.7v1.3l-.1,1.2-.4.9-.4.3.1-1.4v-.8l-.3-.9v-.8Zm-1.5,2.4.8,1-.7,1.2L75,43v-.9Zm3.1-.8.7.8-.3.7-.4-.1L78,41.2Zm0,2.9-.5,1,.1-.8Zm-21,6.3L57.2,49l.3-1.1.6-.4,1.1.2v.4l-1.1,2Zm0,1,.5.6v1.2l.9,1.2-.5.2-.7-.2-.7-.6-.5-.6-.2-1,.3-.3ZM59,51l.6-1.2.7-1.1.5-.9.7-.2v.3l-.6.8-.5.8-.5.8-.3,1.2-.4.3Zm-5.1,3.4,1.3.7-.4.6-.7-.4ZM56.2,56l1.2.3.3.7Zm1.9-.5,1.1.2-.8.5Zm2.3-2.6.8-1.6.7-1.6.3-.8.4-.7.5-.7.7-.8.9-.6,1-.5,1-.4,1-.2,1.3-.3,1.1-.2,1.4-.1,1.3.1,1,.4.7.7.5.9.2,1.1.1,1.1v1l-.2.9-.3.9-.4.9-.6.8-.7.7-.9.2.5-.8.6-.7.7-1.1-.7-.3-.3.3-.5.9-.9.8-1,.1-1-.2-.4.5.6.6-.5.4-.7.2-1,.1-.7.3-.4.7.3.7.5.2.6-.1,2.2-1-.5.7-.6.4-1.4.6h-.9l-.6-.3-.3-.7.1-.8.7-.7,1-.5v-.7l-.6-.2-.5.2-.5.6-.9.7-.6.2-.8.1-.7-.2-.8-.4-.4-.7-.8-.3v.6l.5,1,.8.7.9.4.8.6-.7.3-.8-.2-.7-.4-.6-.7-.5-.7-.2-.9v-.8Zm1.7,5.4v.9l-.5.7-.8.6-.8.7-.8.8-.7.9-.5,1-.5.7-.8.4-.9.3-.9.1-.9-.2-.4-.5V63.4l.2-.7.5-.9.7-1,.4-.4.8-.3,1-.1.8.1,1-.2.7-.7.7-.6.9-.3Zm3-.4.1.8-.5.6-.9.4-.5-.3.3-.4.9-.6Zm-1.8,2.4.1,1.1-.4.9-.7-.5.2-.7.4-.7Zm4-2.1.4.6-1.7,1Zm10.5-8.1.7.5-1.8.7-.5-.4Zm.1-.9.8-.4,2,.4-.2.7Zm1.7,1.7,1.1.7-1.1.5-.8-.7ZM71,50.7l1.2-.6-.1.7-.6.6-.6-.4Zm6.8-13,1.1-1,1.2-.9,1.3-.9,1.3-.8,1.3-.7,1.4-.6,1.4-.6,1.4-.4,1.7-.1,1.7-.1H95l1.6.1,1.7.1,1.7.2,1.7.3,1.4.3,1.4.3,1.4.3,1.4.4,1.4.5,1.3.5,1.4.6,1.1.7-8.2,2.6-1,.4-.9.3-2.6,1.6-2.6,1.6-2.5,1.7-2.5,1.8-.9.7-.9.8-.8.8-.8.8-5.1.3-.3-.8-.5-.7-.9-.6-1-.4-1.2-.3-.9-.1.4-.9.3-.9.2-.9.2-1.3-.1-1-.2-.9-.4-.9-.4-.7-.6-.6ZM95.6,47l-.2,2.2-.9-.1L93,48.9l.6-.6.7-.6Zm1.5,2.5v-.8l.1-.8.1-.9.3-1,.5-.9,1-.7,1-.7.8-.5.8-.4,1.2-.5,1-.2-.3,1.6-.4,1.5-.5,1.6-.6,1.9-.4,1.2-.5.3-1.1.1-1.2-.1-1-.3Zm5.8,1.3L105,45l.3-1,.3-1.1.3-1.1.5-1.2,1.1-.5.9-.3,2.1-.6,2.1-.5,2.2-.4,2.5-.3,1.1.3,1,.4,1,.6.6.5,1,.9L112.7,55l-1.2-.7-1.2-.6-1.2-.6-1.2-.6-1.3-.6-1.2-.5-1.3-.4ZM124,41.6l1.1.7,2.1,1.4,1.2,1,.7.8L117.5,58.4l-1-.6-1-.7-1.7-1.4Zm6.7,5.3,1.1.8,1.1.9,2,1.9.5.7.3.9-.4.8-.3.8v.8l.2,1.1-.4.8-.5.2-.8-.2-.8-.4-.7-.7-.3-.6-.7-.2-.7.2-.4.9.2.6.7.5.8.8.5.6.5.7.6.9.3.8-1.3,1.6-1.6,1.8-.4.3-1.6.9-.6.3-.6.3-.7.3-.9.3-.7.2-1.5-1.7L122.1,63l-1.5-1.7-1.5-1.7-.2-.6.3-.1.6-.4.6-.4,1.4-1.3,1.3-1.4,1.3-1.4,1.3-1.4Zm.7,18.7.7,1,.4.8.2.9.1.8v.7l-2.1.9-2.3.9-.5-.6-.7-1.2-.4-.6-.4-.6.8-.6.9-.6,1-.5,1-.6ZM88.9,52.1l1.1-.2,1.1-.1h1.1l1.1.2.7.2.8.2-.1,5.4L94.1,61l-.5,3.1-.5,3-.4,3.1-1.5-.1-1,.1-1.3.1L86.8,57.7l-.1-1-.1-1.2Zm8,.5,1.6.2,1.2.3.8.4L98.7,59,95.5,70.5l-1-.2Zm5.5,1.3,1.6.6,1.6.7,1.6.7,1.5.7.8.5.9.6.3.4L100.3,72.8l-.7-.3-2.3-.9.5-2.2.6-2.2L99,65l.6-2.2.7-2.2,1.4-4.3ZM85.3,56.8l.5,3.3-.1.9.1.7.3,1.9.3,2,.4,1.9.4,1.9.2.7-1.5.2L82,60.9l.4-.8Zm-3.9,6.5.9,2.5.8,1.9.8,1.9.8,1.8L83,72.5l-1.5,1-4-3.2.3-1.2.4-1,.5-1,.6-1.1,1-1.4.6-.6Zm-3.9,8.6,1.1.8.7.9-.7.5-.7-.5-.8-.8.1-.8Zm-1.3,3.3.9.3L77,76.6l-1-.1Zm36.2-16.5,2.6,2.1L102.9,74.2l-.7-.5Zm4.2,3.1,2.8,2.8,2.7,3,.5.7-15.9,9.3-.5-.7-.6-.6-.6-.6-.5-.7,1.3-1.2,1-1.1Zm6.8,8.3.7.8.9,1.3-.1.6-1.3.8-1.2.6-3.3,1.6-3.3,1.4-3.4,1.4-3.7,1.5-.4.1-.5-1.3Zm11.8.8,1,1.8-.3.7-.5.5-.8.5-.7.3-1.6.6-1.6.4-1.2.1-.4-.7-.2-.8-.2-.7.7-.3.7-.3,1.4-.6,1.1-.2.5-.2ZM74.9,86.3l.6-2,.4-.9.6-1.3.6-1.2.7-1.2.8-1,1-1,1-.8,1.1-.8,1.2-.7.9-.4,1-.4,2.1-.6,1-.2,1-.2,1.1-.2,1-.1h1.1l1.5.4,1.5.5,1.4.6,1.4.7.8.4,1.5.9.7.6.7.6.6.7.6.6.5.7.5.7.4.7.4.8.3.8.3.8.3.8.2.8.1.9Zm34.2-4.6,13.4-5.8,3.6-1.1.8.9.3.9-.7.6-.9.6-.9.7-.6.6-.5.7-.8.7-1.2.1-1.2.3-1,.5-.7.9-.4.7-.7.5-.9.2-.4-.1-6.7,1.1V83.3l-.1-.9Zm8.8,4.3.4-1,.5-1.1.4-.4.8-.6,1-.4.9-.1h1l.9.2.9.3.9.4.6.4,1,.2.9.3.7.3.6.3.7.3.9.6.7.4-.9-.1Zm34.9-33.9.6-.8,1.2-.4,1.3-.1,1.3.1,1,.3.9.4,1.2.7.1.3-.3,8.2-.7-.4-.7-.3-.5.1-.7.4.1,1,.4.6-5.5.4Zm1.2.8,1.3-.3,2.2.4h1l.8.3.2.9v.6l-.4,1-.9.1-.8-.5.2-.6.6-.4-.7-.4-1-.2-.6.1-1-.2-1.1-.4Zm.1,1.5,1.3.1.3.7-.5.4-.7-.1-.5-.4Zm.2,1.9.9-.1h1.1l.7.1.9.3.9.8-.5.6-.7-.1-.8-.3-1-.1-1.1.1-1-.3v-.6Zm-.4,3.4.4-.9.7-.3,1-.1,1.1.3.5.7Zm2.8.4-.5,1.3-.9-.2-.4.1-.9.4-.2-.5.4-.8.5-.2Zm5.9-6.9.9-.3,1.6-.3h1.7l.8.1.8.2.9.5h-1.4l-1.6-.1h-1.6l-.8.1Zm.1,3.7.9-.3.8-.2.8-.2h1.6l.8.1.8.2.9.5h-3.8l-.8.1-.7.1Zm.1-1.8.9-.3.8-.2.8-.1.8-.1.8.1.8.1.8.2.9.5h-1.5l-1.5-.1h-.8l-.8.1-.8.1Zm0,3.9.9-.3.8-.2.8-.1.8-.1h.8l.8.1.8.2.8.4h-3.8l-.8.1-.7.1Zm0,2.4.8-.3.8-.2.8-.1.8-.1.8.1.8.1.8.2.9.5h-1.5l-1.6-.1h-1.5l-.8.1Zm-26.3-4.6,1,.9,1.1,1.1,2.4-2.9,1,2.6,2-1.6.9,1.8,1.2-.2-.2.6-.3,1.6-.2,1.6-.9-.5-1-.3-1-.3-1-.2-1-.1h-1l-1,.2-1,.2-1,.3-.9.3-.4-.9-.4-1.1-.3-.8.7-.4.5-.6Zm.1,2.3.8.6-.3.7-.8.1-.6-.6.3-.7Zm3.6-.3.8.6-.3.7-.8.2-.6-.6.3-.7Zm3.4.2.9.6-.3.7-.8.1-.6-.6.3-.7Zm3.7,5.9,1.7,1.4h1l3.9-1.1.8-.2h.8l.8.2.9.4-.5,1.5-5.8-.3-2.6.1-2-2.1ZM146,67.2l2.8.9-2.7.1Zm.3,2.4h2.4l2.4-1.2,4.3-.1-.1.7-5,1.3-4.2.1Zm12.6-3,1.6.8-.1,1.1-2.5.1v-.8Zm2,4-.3.8-.9-.2-1-.2-1,.1-1,.1-.7.2-.6.3-.7.6-3,.3.1-.8.9-.4.9-.4,1-.3,1.2-.3,1.1-.2,1.1-.1,1.1.1Zm-19.4,34.2-1.7,1.4-.8.6-.9.3-1.1.1-1-.1-.6-.4-.4-.8-.1-1V104l.7-.7.7.1.3.3,1,1.7,1.3-1.9,1.7-.6-.3-.7-.7-1v-.9l-.2-1h-.6l-.8.3h-2v.8l-.3.8-.5.3.3-4,.6-.3,1.4-.9.6-.4.7-.6.1-.9V91.3l-.1-1.6-.1-1.6-.2-.9.2-1,.6-.6.2-.7V84l-.7-.5-.3.3-.3.9-.3.2-.8-.1-1.3-.6-1.3-.8-.9-.7-.4.6-.4.3-.5-.6-.2-.9-.5-1.1-.5-.7-.1,2-2.5-1.6v.6l.3.5-2.3-.7-1-1,.3-.8.6-.7.8-.5.7-.2.9-.3.9-.2.9-.1,1-.1.8-.1.7-.2.6-.2,1-.4,1.1-.8,1-.9.7-.8.6-.8,5.2-.1.4.4,1.1.8,1.5.7.6.1,2.8.9,1.4.4,1.6.5.9.2.7.3,1.7.7,1.7.8,1.7.8,1.8.8.3-.4.3-.7.2-.7.3-1.8.3-1.9.2-1.8.2-1.9-.3-2-.4-1.3-.2-.7-.3-.8-.5-.7-.7-.6-.8-.5.1-2.7.4.7.5.2,1.1.8,1.2,1.1.3.8.1.7.1,1.4.1,1.4V72l.7.7.4-.4.9-3.8.6,7.4.1,1.6v.9l-.1,1.2-.3,1.2-.3.8-.3.7-.4.7-.7.8-13-.2v-.7l-.1-.7-.2-.7-.3-.9-.3-.6-.5-.6-.6-.3.3,4.8-.5.5-1,.6-1,.4-.7.1.2-1.6,2.5-.4-1.6-1.7V80l-2.1,1.3-1.9-1v2.2L142.2,84l2,.6.5,1.4-1.3-.2-.8-.3-.5-.7-.4-.7-.8-.3-.4.3.3.9.7.9.8.8,1,.6,1,.4,1.1.2,1.1.1,1.1-.1,3.5-1.2-.7.6-.8,1-.5.8-.7,1.4-.6,1.4-.4,1.5-.3,1.5-.1,1.6v1.6l.1,1.6v2l-.4.7-.7.4-1,.2-1,.4-1,.5Zm-4.9-28.4,1-.7.9.1,2.9,1.2,2.3-1.4,1.7.1v1.1h-2.2l-1.3,1.4-1.3-.1-2.3-1.7Zm34.3-6.7L169.5,71l-1,.4-.9.2-.1-1.5,2.4.1Zm-35.3-5.2.7-.8.7-.5.7-.3,1-.3,1.3-.2h1.3l1.3.1,1.3.3,1,.6.2,1v.9l-.1.9-.2.9-.3,1.3-.4,1.5-.7,1-.9.7-.9.4-1,.2-1-.1-.9-.4-.7-.6-.6-.8-.4-.8-.3-.8-.4-.7-.2-.7-.1-.7-.1-.7v-.7Zm2.2-.8,1.3.6.8.6-.3,1-1.3.1-1.2-.9.1-.8Zm5.2,0,.8,1.1-.1.8-2.6-.1.1-.9.4-.4.5-.2Zm-6.4,4,1.4.3.8.1.8.1h1.1l1.1-.1,1-.2.6.1-.3.9-.3.6-.6.7-.7.5-.7.3-.7.1-.7-.1-1.1-.4-.7-.7-.4-.6-.3-.8Zm5,1.8-1.1.2-1.6-.3-.1-.4,1.1.1h.7l1-.1Zm-1.9-2.4v.7l-.3-.6Zm1.3,0v.7l-.3-.6ZM153.6,114l.3,1.3.2.7-.6.6-.9.6-.9-.1.7-.6.5-.6Zm1.2,2.3.3.9v.9l-.3,1.2-.4.8-1.2-1.7.5-.3.4-.4Zm-6.3,3.9v1l-.4.6-.7.3-1.1-.3-.2-.6.3-.7.4-.7.5-.6.7-.7.5-.2.6.1,1,.1.8.1.6.3.7.5.3.7-.3.8-1.1.4-.9-.1-.9-.5Zm-3.7,2.6,1.1.3.7.6.6.8.3,1.1-.3.4-.9.3-.6-.1-.8-.4-.7-.6-.6-1,.2-.6Zm4.4-.6,1.5,1.1-1.2.8-.8-.1-.6-.5V123Zm4.5-.7,1,.6-.3.7-.8.3-.7-.2-.4-.3Zm-2.1,2.7,2.2.7.1.5-.3.7-.4,1-.5,1.6-.3,1.3-.3,1.3-.3,1.3-1.1-1.3-1.5,1.4-.9-.2-1-.7-.8-.3-.1.7-.3.9-.7.4-.7-.2-.8-.3-.8.3-.1.4.8.7.7.6.9.7,1.1.8.8.4.7.1.7-.4.7-.3.8-.3.8-.2.7,2.1.3,2-.6.7-.7.3-.3-1.9-.5.2-.4.5-.5.2h-1.1l-.8.1-.3.6-.2.9-1-.1-.4.4v.6l.8.1,1.2-.1.3.6-.4.4-.7.5,1.5.3.6-.4.8-.1.7.1.6-.1.5-.6.7-.2.7.1,1.1.4.6.6.4.7.8,1.6-1.5-.4h-.7l-.2.6.1,1-.4.8-.4.4-1.5.5.5.5,1.1.2,1.3.1.6-.1,1.1-.3.3-.6.1-.5.7-.8.7-.3,1.1-.3,1.3-.1,1,.2.7.4.5.6.2.8.3.8.3.4.1.7-.1.7-.2.5-.6.3-.7.3-.7.3-.6.2-.7.2-.7.2-1.4.2-.7.2h-.7l-1.5-.1-.7-.1-1.4-.3-.7-.3-1.1-.4-2-1-.9-.6-1.2-.9-1.1-1-.7-.8-.7-.8-1.3-1.7-.7-.8-.6-.8-1.2-1.8-1-1.8-.9-1.9-.9-2-.4-1.9,1.3.4h.9l.6-.2.7,1.8.8,1.8.9,1.7,1,1.7.5.8.6.8,1.1,1.6,1.2,1.6,1.6,1.6.6-.1-5.7-7.9-.5-1.4-.6-1.4-.3-.7-.3-.8-.3-.7-.3-1-.6-1.7-.2-1.2-.1-1.2v-.9L141,128l5.7-.2.7-.5,2,1.1,1,.2.8-.1.6-.4.6-.8.4-.9-1-.6-.7.8-.7.3-.9-.3-.2-.6.6-.5.9-.3.7-.6Zm6.1,24.4.6,1-.4,1.5-.1.8-1.1,1.1-1-.1.7-2.1.2-.7.5-.3Zm2.4.6.4,1.5-1.2,1.1-.3-.6v-.5l.1-1.3Zm-2.3-20.8.2-.8.3.1.9.5.9.6.9.8.9.9.8.9,1.2.8.1-.7-.1-.7-.2-.4-.3-.7-.4-.6-.5-.6-.5-.6-.8-1.3.6.1.7.7.7.8.6.8.6,1.1.3.8.3,1,.7,1,.3-.3.1-.7-.2-.7-.3-.8-.3-.7-.4-.7-.7-.9-.3-.9.5-.1,1,1.4.8,1.6.8,4.7.9-1.1-.1-1v-1l.1-1,.3-1.3.9-.9-.3,3.6.4-.8.6-1.3.5-.8,1-.8.3.3-2.4,4.1.5.3.5-.2.7-1,.6-.9.6-.9.8-1.1.8-.6.2.8-3.9,6-.1,1.3-.2,1.2-.6.7-.9-.3-1.1-.2-1.1.1-.5.8.2.7.3.4,2.1.2v-.9l.8.9-.1,2.2-1.7-1.2-.7.5.2.7.5.8.5.4.4.7v1.1l-.3,1.1-.6,1-.7.9-.7.8-.7.3-.4-.6-.9-.7-.9-.6-.7-.4-.7-.3-.8-.3.7-.3,1-.4,1,.1.5.7.4.1v-1l-.3-.9-.3-.4.7-.9.1-1.6v-2.4l-.1-.8-.1-.8-.1-.7-.2-.8-.3-.8-.3-.8-.3-.7-.4-.7-.4-.7-.5-.6-.5-.6-.8-.8-.8-.8-.9-.8Zm-22.6-18.1.9,1.6.1.7.1,2.3V116l.1,1.4.1.8v3.2l.2.7v1.2l.1,1.3.3.7.2.9.1.7.1.7v.7l.3,1,.2.9.1.8-.1.8-.2.7-.6.6-.9.1-.9-.3Zm12.7,23.6.9.6v.7l-.5.4h-.7l-.5-.5v-.7l.5-.4Zm2.7-.1.5.8-.6.3-.5-.4Zm-1.8,7.5.7.3-.9.1-.5-.2Zm3.5-.2v.8l-.4-.6Zm-2.4.9-.3.6M43.1,57.9l.7,1.6.6.5.5-.1,1.1-.6.3.2-.3.8-.3,1.2-.3,1.4-.3.5-1-.3-1.4-.4-.9-.2-1.5-.1-1.2.1-1.1.2-1.2.3-1.1.4-.9.4-.1-.8-.1-.8-.4-1.7-.3-.5,1.3.3,1-1.8,2.1,1.6,1.1-2.6,2,2.2ZM43,60l.8.8-.2.6-.8.2-.7-.6.2-.7Zm-3,0,.8.8-.2.5-.8.2-.7-.5.2-.7Zm-3.4.3.9.8-.2.5-.8.2-.6-.5.2-.7Zm9.7,18.5-3.4-.1-2.8,1.4-1.3.1L37,78.9l-2.5-.1-.2-.8,2.6-.4,3,.9,3.2-1.2.9.1,1.1.4,1,.6Zm-35.2-12,2.7,1.5-1.1,5.6-.7.3h-.8l-.1-1.3V66.8ZM44,65.2v1.3l.1,1.2v2l-.2,1-.3.7-.3.7-.6.6-.7.4-.9.3-1,.1-1-.2-.7-.3-.7-.4-.6-.6-.5-.6-.4-.7L36,68.8l-.1-1.9.2-1.7.7-.6.8-.4,1-.4.9-.2,1.1-.1.9.1.8.2.7.4.6.6Zm-1,.1.7,1V67l-2.4.5-.3-1,.8-.6Zm-5.2,0,1.3.5.6.6v.7l-2.6.2L37,66.2l.3-.5Zm5.5,3.9L43,70.4l-.4.9-.7.8-1.1.3H39.7l-1-.3-.8-.4-.6-.6L37,70l.2-.7.9.5,1.2.2,1.2.1,1.1-.1,1.1-.4Zm-4.6,2,1-.5.7-.1h.7l.6.1-.6.5-1.6.1Zm2-2.6.1.7-.5-.6Zm-1.2,0,.2.7-.5-.6ZM24.4,131.2l-.8.4-1.5.9-.7.5-.7.6-1.2,1.2-.7.8-.6,1-.6,1-.4,1.1-.3,1.1-.1,1.1V142l.1,1.1.2.8,1.2,2.2.7,1.2.3.7v.9l.2,1,.7.8.3-.2.3-.8,1-.1,1.2.1,1.3-.1,1-.2-.1,1.3-.1,1.3v2.5l-1.2-.2-1.2-.3-1.2-.4-1.1-.4-1.1-.6-1-.7-1-.7-.9-.8-.7-.7-.6-.7-.5-.8-.5-.8-.4-.9-.3-.9-.2-.9.2-.9.9-.2.8-.4.7-.6.3-.8-.2-.7-.6-.1-.6.6-.5.4-1.3.7-.2-.7-.1-.7v-1l.1-1.1.3-.8,1-1.1-.5-.3-.9.4-.9-.1-.3-.4-.2-.5-.7-1.2-.4-.7-.4-.6-.5-.6-.5-.6-.5-.6-1.1-1-.7-.6-.3-1,.8.3.8.6,1,.9.7.8.7.8.7.8.7.8h.4l-.1-.7L9.5,130l.4-.2.4.2.9,1.1.5,1.1.8.9.3.1-.3-2.8.5.1.3.9.2.8.1,1.2.1,1.6.5.8.7-.2.3-.4.7-3.3.5-1.2,1-1.3.3.3-.2.7-.5.7-.5.9-.4,1.2-.3,1.1v.8l.5.4.5-.9.1-.6.2-.8.3-.7.5-.8.6-.8.6-.8,1-.9.7.1v.6l-.9.8-.8.9-.7,1-.6,1.1-.3.9-.1,1.1v.7l.6-1,.7-.9.7-.9.9-1.1.7-.7.6-.4.9-.6,1.4-.5.4.2ZM45.8,109l.3,27.2-1.6-.6-1.7-.7-.3-.8v-.8l.2-.6.4-.6v-4.6l.3-1.1.2-1.3.2-1.4.3-.5v-3.5l.2-.6v-5.5l.1-2.1.1-.7ZM34.7,133.8l.5.9-.8.2-.2-.8ZM9.5,48.1l.7.3v1.3l.7.8-.1.8-.7.2L9.4,51l-.3-.7v-.5Zm11.1-.3.3,1.4L21,51l-.4.9-.7.2-.7-.3-.5-.8.5-.7.4-.7.3-.9ZM6.9,60.2l.5-1.3.2-6.5.5-.3,1.3.3,1.3.2,1-.3.5-.7.7-.4.7-.3,1.2-.2,1,.1,1.5.3.9.6.5.6.8.5,1.1.3,1.9-.7-.1,6.4-.4-.6-.3-3.9-.9-.6-.9-.4L19,53l-1-.2-1.7-.1H14.9l-1.4.1L12,53l-.9.2-.8.3-.7.4-.6.6-.7.8-.2,4.9Zm4.5-5.7,4,.1,1.3-.2,1,.1.7.1.4.2-1.5.4-1.4.5-.9.4-1-.3-1.1-.3-1.3-.1Zm1,2.5,1.6.4-.2.4-.6.2h-1l-1.3-.6.4-.4Zm6-.1,1.7.4-.2.4-.7.2-1,.1-1.3-.5.2-.4.7-.2Zm-7.6,3.3.8.4.8.1,1.2-.2,1.2-.4,1-.4.6.5.8.2h.9l.9-.2,1.2-.4.4.5.1.8v.8l-.2.8-.2.6-.5.7-1.1,1.3L18,66l-.9.5-1.7.3-1.1-.2-1-.4-1-.6-.6-.6-.7-.7-.6-1.1.2-.8.7,1,.5.7.8.8,1,.6.8.3.9.1h1l1-.3.4-.1,1-1.3,1.1-1.7.2-1.8-4.3,1.7h-1l-1.3-.3-1.1-.4-.7-.5-.6-.6Zm1.9,2.9,1,.5,1,.2h1l.9-.2.9-.3.9-.4-1.2,1.5-1.1.3-1,.1-.8-.3-.5-.3Zm3.1-2.3.9.5-.6.3-1.1.1-.1-.5Zm8-19.1,1,1.2.3.7.1.7V45l-.4,1-.6,1.1-.8.6-.3-.4.3-1ZM25,47.9l1,.3-2.7,3.2-.3-.6.5-.6.8-1.1Zm.7,2.7.8.3L24,53.6l-.1-.4.5-.6.6-.9Zm2.6,3.8.9.2.6.4.4.7.1.7-.3.7-.5.6-.7.3-.8.1-.7-.2-.6-.4-.4-.7V56l.3-.7.5-.6.7-.3Zm-2.4.3-.7,1,.1,2.2.9.4.4.7-.8.1-.9-.2-.6-.3v-4Zm-2,4.9-.3,1.1.9.2,1.1-.2L25,61l-1,.2-1.1-.3ZM26.4,61l1-.6,1-.6.1.7-.4.5-.7.4-.9.1Zm3.5-1.6.7,1-.1.6-.5.7-.7.8-1,.6-.8.3-.9.2h-.9l-1-.1-.2-.3,1-.2.8-.2.8-.3,1-.5.6-.4.5-.6.4-.7Zm-8.3,8.2h.8v4.3l.1,1h-.9ZM25,65.9l.7-.1.1,1,.4,1.3-.2.3-.5-.3-.2-.9Zm2.3-.5h1.6V69l.1,1.7.1,2.1.2,1.1-.3.7-.6-.2-.4-.9-.2-1.2-.3-3.6Zm7.6-.1-.3,3.4-.7-.5-.3-.6-.1-.8.2-.8.7-.6Zm11.2-.2,1.2.8,1,.6,1.3.7,1.4.1h1.2l1-.1,1.3.1,1,.1,1,.2,1,.2h4.1l1.5-1.2.3.3-1.8,1.7-1,.1-3,.1H52.1l-2.9-.1-.9-.5-.9-.6-.7-.5-.6-.4-.7-1,.1-.3Zm-.2,3.5,1,.7,1.7.9,1,.1,1-.1.8-.1h1l1.6.2.7.2H58l1.3-.8L58,71.2l-1,.1-4.3.1H50.5L48,71.2l-.6-.2-1.2-1-.8-1Zm-.6,3,1.5,1.7.1.8-.2.9-.6.8-.8-.2-.7-.5-.6-.7-.3-1,.3-.6Zm4.1,2.3,1.3.5.5.6v.8l-1.7.2Zm3.5-1.1,3.6.5-.6.4-3.2-.3Zm6,.3,1-.8.6-.1.8.1.8.4-1.5.1L60,73Zm-12,14.1.8-.7,5.2-1.9.9-.3,1.1-.3,2.3-.3,1.5-.1,1.1.3,1,.5.9.7.8.8.5.8Zm-1-.1.2.9v.8L46,90l-.1.6v1.5l.1,1.5h-.9l-.7-1.4-.3.6v.6l.1.9.5,1.2.2.8-.7.7-.6-.2-.4-.7-.6-.9-.1-.8.1-.8.3-.4,1-3.4.3-.9.5-.9.7-.7Zm-9.5,35-.2,1.9-1,.1-1.5-.5.3-.5,1-.6Zm-3.6,3.3,1.5.8h-.9l-.7-.1Zm3,.4,1.4-.9.9.3.9.4-1,.5-.7.1-.6-.2Zm-9.6,23.3,1.3-.8,1,.1.3.4.3,1.1.5,1.2.8.7,1,.3,1,.1,1,.1.2.4-.7.6-1,.6-1.1.4-1.2.2H28.4l-1.3-.2-1.3-.4-.2-.3,1.7-1.6-.5-1.2-.3-.5Zm4.8,1-.2-.8.7-.3.8-.1.9.2.8.4.4.7,1.5.5-1.8.6-.6-.4-.4-.7-.9-.3Zm11.3-13.6,1-.1.8.1.8.5.2.4-.4,1.1-.4,1-.9,1.9-.5,1-.5.9-1.3,2.1-.6.8-.5.5-.7.7-.8.3-1.2.3-.8.5-.9.6-.6-.2,2.8-3.5.7-1.1,1.3-2.2.6-1.1.5-1.2.5-1.2.4-1.2Zm-8.4,25.3,1.4,3.3,1.4,3.3,1.5,3.3,1.6,3.3.6,1.3.7,1.3.6,1.1.6,1.1.7,1,.7,1.1,1.5,1.9.8.9.9.8,2,1.9,2.1,1.9,2.2,1.8,2.3,1.7,2.3,1.6,2.4,1.6,2.4,1.5,2.5,1.4,1.2.3,1.3.3,1.3.2,1.2.2,1.3.1,1.3.1H74l1.3-.1,1.2-.1,1.3-.2,1.2-.2,1.2-.3,1.2-.3,1.2-.4,1.2-.4,1.2-.5.8-.4.7-.4.7-.5.7-.6,3.9-3.1,2-1.6,2-1.5,2.1.1h4.3l2.2-.1,2.2-.1,2.1-.2,2.2-.2,2.1-.2,1.4-.2,1.4-.3,1.4-.3,1.4-.4,1.4-.5,1.3-.6,1.3-.6,1.3-.7.6-.3.6-.4.6-.4.6-.5.6-.4.7-.4.6-.6.6-.5,1.6-1.8.7-.9.7-.9.7-1,.6-1.1.6-1,.6-1.5v-.9l-.3-.9-.3-.6-1-.4-.9-.3-.8-.4-1.1-.8-.7-.7.8-.4.9-.3,1.7-.8,1.3-.7,2.5-1.6,1.2-.8,1.2-.8,2.4-1.8,1.1-.9-.3,2.1-.3,1.1-.3,1-.3,1.1-.3,1-.4,1-.3,1-.4,1-.4.9-.5,1-1,1.9-.5.9-.6.9-.6.9-1.2,1.6-1.2,1.5-1.3,1.5-1.3,1.4-1.3,1.4-1.4,1.4-1.4,1.3-1.5,1.3-1.5,1.3-1.5,1.2-1.6,1.2-1.7,1.1-1.6,1.1-3.4,2-1.7.9-1.7.7-1.7.8-1.7.8-1.7.8-1,.5-1,.6-1,.6-1.4.8-.4.4-1.4,1-1.3.9-1.3,1.1-2.3,2.3-1,1.2-1,1.3-1.4,2.2-.5.9-.4.8-.4.9-.4.9-.3.9-.3.9-.3.9-.4-.5-.7-.6-.6-.6-.7-.5-.7-.5-2.8-1.8-2.9-1.7-3-1.6-3-1.5-1.2-.3-1.1-.3-1.2-.4-1.1-.3-1.1-.4-1.1-.4-1.1-.5-1.1-.6-1-.5-1-.6-2-1.2-1-.7-1-.7-1-.7-.9-.8-.8-.5-.8-.6-.8-.6-.8-.6-.7-.7-.7-.6-.7-.7-.7-.7L49.3,194l-1.5-1.9-1.4-2L45.1,188l-1.3-2.1-1.2-2.2-1.1-2.2-1-2.2-7.3,3.5-.3-.8-.3-1.3-.2-1.3-.2-1.3-.1-1.3v-1.9l.1-1.9.3-3.8.3-1.9.3-1.9.3-1.9Zm2.7-4.6,1.6,1.9.9.9.9.8,1,.9,1.9,1.6,1,.8,1,.7,1.1.7,1,.7,2.2,1.2,1.1.6,1.2.6,1.1.5-4.7,4.2.3.9.4.9,1.4,2.7.6.8.6.8,1.3,1.6.7.7.7.7.7.7.8.6.8.6.8.6.9.6.9.6.9.5,1.9.9,1,.4,1,.4,1,.3,1.2.4.6.2.8.2,2.5.3,4.3.2,4.3.2h4.3l2.2-.1,2.1-.1,1.6,1.4-.8.8-.9.8-.9.7-2,1.2-1.1.5-1.1.4-1.2.3-1.6.3-1.6.2-1.7.2-1.6.1H72.4l-1.6-.1-1.6-.2-1.6-.3-3.1-1-.7-.2-.7-.3-.7-.3-.7-.3-1.4-.8-.7-.4-.6-.4-2.5-2.1-2.4-2.2L51.7,186l-2.4-2.2-.8-.8-.8-.9-1.6-1.8-.7-.9-.7-.9-.7-.9-1.3-2-.6-1-.6-1.1-.6-1-.5-1.1-.5-1.1-.4-1.1-1-2.5-.4-1.3-.4-1.4-.3-1.3-.3-1.4-.3-1.4-.2-1.5Zm109.8-.2.7,1.4.6,1.5.6,1.5.5,1.6.4,1.6.3,1.6.2,1.6.1,1.6v4l-.2,2.7-.1,1.3-.3,2.7-6.5-3.9-.4.9-.6,1.3-1.2,2.6-.7,1.2-1.4,2.5-.7,1.2-.8,1.2-.8,1.2-.8,1.1-1.7,2.2-1,1.1-.9,1.1-1,1-2.2,2.3-1.1,1.1-1.2.9-1.2.9-2,1.3-4.2,2.4-2.1,1.2-2.2,1.1-2.2,1.1-2.2,1.1-2.2.9-1.1.5-1,.5-2,1.2-1,.6-1,.6-1.9,1.3-1.8,1.4-.9.7-.9.8-.8.8-.8.8-.8.8-.8.8V219l.1-1,.3-1.1.3-1,.3-1,.4-1,.5-.9.5-.9.6-.9.7-.8.7-.8.7-.8,1.6-1.6.9-.7.8-.7,1.7-1.3,1.8-1.2,1.9-1.1,1-.5,1-.5,2-.9,2.1-1.1,2.1-1.1,1.4-.7,1.3-.7,1.3-.8,1.3-.8,1.3-.9,1.3-.8,1.2-.9,1.2-.9,1.2-1,1.1-1,1.1-1.1,1.1-1.1,1-1.1,1-1.1,1-1.2,1-1.2.7-.6.6-.6,1.1-1.4,1.1-1.4,1-1.5.8-1.6,1.1-2.3,1-2.3,1-2.3.9-2.3.9-2.4.8-2.4.7-2.5ZM49.3,89h81.9l1.3,74.2-9.9,5.4,8,4.6-.4,1-.5.9-.4.7-.5.7-.5.7-.6.7-.5.7-1.2,1.2-1.3,1.1-.7.6-.7.5-.7.5-.7.4-.8.4-.7.4-.8.3-1.8.5-1.9.5-1.8.4-1.9.3-1.8.3-1.9.2-1.9.1-1.9.1-1.6-.1-.8-.1-.9-.1H99.6l-1.7.1-1.7.2-2,.3L93,187l-1.1.5-.6.5-.8-.2-.7-.3-.7-.3-1-.3-1-.1-4.5.1H78.3l-2.2-.1-2.1-.1-2.2-.1-2.1-.1-1.6-.5-1.6-.6-1.6-.6-3-1.4-1.4-.8-1.4-.9L57,180.4l-.6-.5-.6-.6-.6-.6-.5-.6-.5-.6-.5-.7-.5-.6-.4-.8-.3-.8,8.6-6.2L50,162.6Zm11.9,12.4,60.9-.6.3,61.4v1.7l-.1.9-.1.9-.2.8-.3.7-.3.8-.3.7-.3.7-.4.7-.4.6-.5.6-1.1,1.1-.6.5-1.3.9-.7.4-.7.3-.8.3-1.1.4-1.2.3-18-.6-1.8,1.7L89.6,175H71.5l-.9-.1-.8-.2-.8-.3-.8-.3-.7-.3-.7-.4-.7-.4-.6-.5-.7-.5-.6-.6-.5-.6-.5-.7-.4-.7-.4-.7-.3-.7-.3-.8-.3-.8-.3-.9-.2-.8-.1-.9V110Zm2.6,2.6,54.9-.4.2,10.8-.3,2.4-.4,2.4-.4,2.3-.5,2.4-.6,2.3-.6,2.3-.7,2.3-.8,2.3-.8,2.2-.9,2.2-1,2.2-1,2.2-1,2.1-1.1,2.2-1.2,2.1-1.2,2.1-1,1.4-1,1.4-1,1.3-2.2,2.6-1.1,1.3L99,159.6l-1.2,1.2-2.4,2.3-1.3,1.2-1.3,1.1-1.3,1.1-1.3,1-1.3,1-1.4,1-2.6,2-13.8.1-1.2-.2-1.6-.4-1-.7-.6-.7-.7-.9-.5-1-.5-1-.3-1.1-.2-.8-.2-.8-.3-1.7Zm55.1,24.5.2,34.7-.2.8-.2.8-.3.8-.3.8-.8,1.4-.5.7-.5.7-.5.5-.6.5-.6.4-.7.4-.7.3-.7.3-.7.2-.7.1-22,.5,9.7-9.1,1.1.3,1.2.3,1.1.1,1.1.1h1.2l1.1-.2,1.1-.2,1.1-.3.9-.3.8-.4.7-.5.6-.5.7-.6.6-.7.5-.7.4-.8.3-.8.3-.8.2-.8.1-.8V154l-.2-.9-.2-.8-.2-.6-.4-.9-.6-1.2-.7-1.2-.7-.8Zm-49.3-13-.6-.4-.6-.5-.5-.6-.6-.8-.4-1.1V111l.3-1,.4-.7.6-.7.6-.6,1-.3,1-.2,1-.2,1.4-.1,1.3.2,1.3.4,1.1.7.8.6.7.7.1,1.1v1l-.2,1.1-.3,1.2-.3.9-.5.8-.7.7-.5.5-.6.4-.9.5-.8.6-.8.6-.9.8-.6.8-.4.9-.1,1.1.3,1,.4.8.5,1.3.6,1.3.6,1.3.5,1.2-1-.1-1-.2-.9-.2-.9-.4-.8-.6-.7-.8-.5-.8-.3-.7-.3-1-.2-1.3-.2-.8-.2-.8v-.7l.1-.7.3-1,.3-.8.4-.8.4-.8Zm4.9,1-1,.5-.9.6-.8.7-1,1-.7,1-.4,1.2-.2,1.2.1.9.2.9.3.9.3.9.3.8.3,1.2-.8-.7-.7-.8-.6-.9-.4-.9-.2-1v-1.1l.1-1.1.2-.8.2-.7.3-.6.3-.7.4-.9.5-.9.4-.6.4-.6.8-1.4-1-.2-1-.4-.8-.7-.5-.9-.2-.8v-.7l.3-.9.5-.6.8-.4.9-.3,1.1-.2,1.2.1,1.2.2,1.1.4.9.5.7.7.4.9v1l-.3,1.1-.6,1-.8.9Zm2.5,2.7.2-.8.3-.9.5-.9.6-.8.8-.6.7-.4.9-.3.9-.2.9-.2.6-.3-.8-.5-.7-.7-.6-.7-.3-.6.1-1.1.3-.9.5-.8.8-.7,1-.4,1-.2,1-.2,1.1.1,1,.2.7.3.6.3.5.4.5.6.3.6.3.7.1.7-.1.8-.2.9-.2.6-.4.8-.5.7-.4.4-.7.4-.7.4-.7.2-.8.2-2.3.3-1.2.3-1.1.3-2.3.8-1.1.6Zm-2.4,3.7,1.1-.1,1-.1,2-.3,1-.2,1-.3.9-.3,1-.3,1-.7.3-.7.6-.6.8-.5.9-.4,1-.2h.7l.9-.1.9-.2.9-.3.8-.4,1.7-.9.8-.3.6-.1.2-1.1.2-1,.3-1.3.3-1.1.3-.7.4-.7.7-.8,1.1-.8.9-.4,2.9-1.1,1.5-.5h1.3l.4.6-.1.7-.3.9-.4.6-.3.4-.7.6-.4.6.8.2.6.6.3.9v.6l-.8.2-.8.2-1.6.6-.6.3-.7.6-.5.6-.3.7.1.9.3.7.7.9,1,.9.6.1,1-.3,1.2-.8.8-.7-.1-2.3v-1l.2-1,.3-.9.3-.7.5-.7.5-.7,1-1.2,1-1.1,1.1-1.1,1.3-1.1.9-.2.9.3.4.6.1.6v1.8l-3.7,3.8-.7,1.2.1,1.1.5-.2.8-.7.8-.8.9-.5h.8l.9.4.5.7.2.8-.2.5-.7.8-.7.7-.8.7-.8.6-.7.5-.6.5-1.4,1.3-.7.8-.6.9-.4.7-.4,1,1,.3,1,.3,1,.4.9.4.8.4.7.5.6.5.6.7-.4.7-.4.6-.4.6-.8.7-.9.6-1,.4-1,.3-.7.1h-2l-1-.2-1.1.1-.3,1.3v.7l.3,1.1.5,1.2,2.4,3.8-9.1,15.3-.9-.3-.9-.4-.9-.4-1.1-.8-1-.8-.7-.8.1-3.5v-7l-.1-3.5-.8-.6-1-.5-1.3-.6-1.3-.4-1.4-.3-1.4-.3-1.6-.1-1.6-.1-.8-.1-.7-.1-.7-.2-1-.3-1-.6-.7-.7-.5-.7-.3-.7-.2-.8.7-.2.7-.1,1.8-.1,1.8-.1,1.8.1,2.2.1.5-.6-.2-.6-.7-.4-1.8.2-1.6.2-1.7.1H76.9l-1-.2-1-.6-.9-.9-.8-1-.7-.9v-.8l.4-.7.8-.6Zm3.6-5,.7-1.2.5-.6.9-.6.9-.3.7-.2.7-.1,1.1-.1.9-.3.7-.7.1-.8-.2-.4-.4-.3-.9.1-.7-.1-.8-.6-.1-.6.2-.9.6-.9,1.2-.6,1-.2h.8l.8.1.8.2.9.4.6.4.5.6.2.8-.2,1-.4.9-.6.8-.6.7-.8.5-.9.4-.7.2-.9.1-1,.2-.9.2-.9.3-.9.3-.9.4-.8.4Zm25-10.4-.2.9-4.2,2.8,2.7,1.1-1,.2-1,.6-.7.8-.4.7-.3.6-.3.7-1.3-.4-.2-.8v-.8l.1-.8.3-.8.4-.8.5-.7.7-.6.5-.4,1-.7,1-.6,1.1-.5Zm7.9-.2.2,1.5-.6.5-.6.4-.5.4-.5.5-.5.6-.4.6-.3.6-.4.8-.3,1-.1,1.1v1l.2.8,1,.2,1.1-.1,1.6-1.8.6.9-.7.8-1,.9-.6.3-.6.4-.7.6-.7.7-.7.7-.6.7-.4.6-.3.8-1.8,2.2-3-.3-.4-.8.4-.7.4-.3,5.6-4.2-.2-1.3-.1-1.4v-2.7l.7-1.1.8-1,.9-.9.9-.9ZM76.9,124.8l1.4-.2.8-.2,1.1-.3,2-.8,1-.5,1-.5,1.8-1.1.9-.7,1-.3,1-.3,2-.3,4.3-1.3.8-.2.9.2,1,.4.9.7.4.7-.2,5.3,3.1,1.8-1,.2-.5.3-.4.7-.2.8V131l.1.9.2.9.6,1.9.4.9.3.9.4.9.9,1.8.5,1.1-.4,1.1-1.3,2.3-1.2,2.1-2.5,4-.7,1-.8,1.1-2.7-1,.4-14.5.8-.4,1-.6.9-.8.8-.9.5-1.1v-1.2l-.3-.7-.4.7-.5.6-.6.6-.7.5-1,.5-1.1.4-1.1.2-1.2.1-1.1-.1-.8-.1-1-.3-1.3-.5-.8-.4-.9-.3-1.2-.1-1.9-.1-1.1.1-.8-.2-.7-.5,4.2-.1.8-.2.8-.3.7-.3.9-.7.4-.7v-.8l-.2-.6-.5-.6-.7-.6-.8-.3-1.1-.2-.7.2-.9.2-2.3.3-2.7.1-.8-.6-.7-.9.2-.8Zm27.2,3.6,3.8-.3.3.6-.7.5-1,.2-.7-.1-.7-.2Zm5.3,20.5.6.7.5.7.4.8.3.8.3.9.1.8v1.8l-.2.9-.3.9-.4.8-.5.7-.6.7-.7.6-.7.6-.8.4-.8.4-.9.2-.9.2-.9.1-.9-.1-.9-.2-.9-.2-.8-.3,1.8-2.1,1.7-2.1,1.2-1.5,1.2-1.5,1-1.5,1.1-1.9.4-.9ZM65.6,138.6l1.3-.5,1.1-.5.8-.6.6-.6.9-.6.9-.4.7-.1.7.2.4.2,1,.8,1,.8.9.9.8.9.4.7.4.7-2.3.4-2.3.3-2.3.2-2.4.2h-1l-1.4-.2-.6-.5-.1-.7.3-.8Zm13.7-.5,1-1,.7-.4.9-.2.9.1.9.4,1,.4.9-.1.7-.6.5.7.5.6.4.7.3.8.3.8-2,.2-2,.2-3.9.2-.7-.1-1.2-.3-.2-.6.1-.4.6-1.1Zm2.1.2,1-.7h.7l1,.4.8.3.8.5.4.6-2.1.2-2.3-.1-.5-.4Zm-15.1,1.5,2.5-.9.7-.9.6-.5,1-.4h1l.9.4.8.6.5.6.2.8Zm-13-63.9,1.2-.3,1.2-.2,1.2-.2,1.2-.2,2.4-.1h2.4l1.6.2,1.9.1,1.2-.1.9-.3,2.6-1.1.8-.7v-.8l-.5-.3-.9-.1-.8.1-1,.1-1-.1-1-.1-.9-.1-1-.2L63,71l-.7-.6.7-.6.6-.9.4-.7.4-.7.3-.7V65.5l-.1-1.1-.3-1-.1-.6.6.8.6.6.6.4.7.3.7.1,1-.1,1-.4.6-.4.4-.6-2.7-.7-.8-.6-.1-.6.3-.9.9-.8.7-.6.7-.7.8-.9.3-.3.7-.5.7-.3,1.6-.7,1.6-.6L78.3,54l-.2,2.8,1.1-.4.9-.7.6-.8.3-.6.3-.6.2-.7,1.2-.3,1-.1.8.2-1.1,1-1,1.1-1,1.2-.9,1.2-.8,1.2-.8,1.3L78.2,61l-.7,1.4-1.1,2.8-1,2.9-1.3,4.3-.3,1.5-.7,3-.3,1.5-.4,3-.1,1.5-.1,1.5-.1,1.7H65.3l-.5-1.2-.7-1.1-1-.9L62,82.2l-1.2-.4-1.2-.3-1.3-.3h-1l-.5-.9Zm1.2,15h3.6l1.4,5.2,1.4-5.2h3.6v8.6H62.3V92.9l-1.7,6.6h-2l-1.7-6.6v6.6H54.7Zm17.1,7.2H68.5l-.4,1.5H65.3L68.6,91h3l3.3,8.6H72ZM71,96.2l-1-3.1-1,3.1Zm4.5-5.3h7.7v1.7l-4.9,5h5.1v1.9H75V97.7l4.9-5H75.5Zm14.6,7.2H87l-.4,1.5H83.8L87.1,91h3l3.3,8.6H90.6Zm-.6-1.9-1-3.1-1,3.1Zm3.3-5.3h8.3V93H98.3v6.5H95.6V93H92.8Zm9.5,0H105v6.5h4.3v2.2h-7Zm13.6,7.2h-3.1l-.4,1.5h-2.8l3.3-8.6h3l3.3,8.6h-2.8Zm-.6-1.9-1-3.1-1,3.1Zm4.8-5.3h2.5l3.3,4.7V90.9h2.6v8.6h-2.6l-3.3-4.7v4.7H120V90.9Zm-46.8,87h2.6l1,3.8,1-3.8h2.6v6.2H78.9v-4.8l-1.3,4.8H76.1l-1.3-4.8v4.8H73.3Zm12.5,5.3H83.5l-.3,1h-2l2.4-6.2h2.1l2.4,6.2H86Zm-.5-1.4-.7-2.2-.7,2.2Zm3.3-3.8h5.6v1.2l-3.6,3.7h3.7v1.3h-6v-1.3l3.6-3.6H88.7l-.1-1.3Zm10.6,5.2H96.9l-.3,1h-2L97,178h2.2l2.4,6.2H99.5Zm-.4-1.4-.7-2.2-.7,2.2Zm2.4-3.8h6v1.5h-2v4.7h-2v-4.7h-2Zm6.9,0h2v4.7h3.1v1.6h-5.1Zm-16-56.9-.7,1.3h1l.5-.5.3-.7.9.1.7.4.4.4.4.5.3.6.3.6.3,1-.1.8-.7.4-.5-.3-.1-.7v-1.1l-.9-.6v.6l.3.6v.8l-.8-.2-.6-.8-.5.3-.5.6-.7.3-.9-.2-.7-.5-.6-.2-1-.2-.3-.3.3-.8.3-1.1.6-.7.8-.4ZM75.8,145.3l.9-1.7.7-1.2.7-.3,1-.4.9-.1.9.2.9.6.7.6.5.6.3.5.4.7.4.7.7.2,1.1.6,1.3.8.8.6.4.8-.1.9-.6.6-5.3,1.7.7,7.7,1.4-.6.6-.3-1.4-2.2,2-.6,2-.5,2-.4,2.1-.3-2.3,8-2.3-.9-7.6,6.5-7.4-6.5-2.1,1.3-2.6-7.4,5.6.7,1.8.4v2.2l1.7.5,1-7.2-1-.3-1-.4-1.2-.6-1.4-.6-.6-.6-.4-.8v-1.1l.5-1Zm3.1,6.5,1.5-.4.5.4.1,2,.2,1.8.2,1.7.3,1.8.2,1.1.2,1.2,4.5-2.8-1-1.7,4.3-.9-.8,4.1-1.8-.5L80,166.2,72.7,160l-1.1.7-2.3-3.8,4.6.6-.4,1.4,4.4,2.4Zm1-9.4,1.3.3.7.5.4.7v.8l-.3.7-.5.5-.7.4-1,.2-.9-.2-.7-.4-.5-.7-.2-.8.2-.7.4-.6.5-.4.7-.3Zm0,.7,1,.2.5.6v.9l-.6.7-.7.2-.8-.1-.7-.4-.3-.9.4-.8.7-.4ZM66.6,153.9l-1-.6.4-.4.6-.5.7-.4.7-.2,1-.2,1.1.2,1,.3,1,.1.7-.3.8-.2.9.2.7.5,1.3.2v1.2l-1,.1-.9-.1-.7-.3-2.4.4-1.3-.3-.3-.4-.7-.5-.8.1-.7.5Zm17.5-.4-.7-.9.2-.3,1.1-.7.4-.1,1.2.2.9.1,1.8-.2,1,.3.6.7-.3.6-.8.2-.8-.2-.6-.2-1.1-.1h-.9l-.8-.1-.7.2Zm-18.3-3.3-.3-.9.9-.4,1-.3.8-.2.4.1,1,.3,1.1.1.1.6-.4.4h-.7l-1-.1h-.8l-.7.3-.9.3Zm9-2.9,1-.1,1-.1,1.1-.1H80l1.1.1,1,.1,1.1.1,1.3.3.7.6-.2.4-.6.4-9.6.2-.7-.6V148Z" fill-rule="evenodd"/>
  </g>
</svg>